<svg width="37" height="36" viewBox="0 0 37 36" fill="none" xmlns="http://www.w3.org/2000/svg">
<g clip-path="url(#clip0_421_27117)">
<path d="M6.66929 0H34.8967C34.9304 0.0157809 34.9655 0.0286026 35.0015 0.0383159C36.2848 0.271159 36.8393 0.922529 36.8393 2.2098V10.7027C36.8393 15.7623 36.8393 20.8235 36.8393 25.8861C36.8393 26.4542 36.6627 26.9449 36.2541 27.3465C35.8111 27.7842 35.2589 27.9161 34.649 27.9043C34.0923 27.8925 33.5355 27.9043 32.9549 27.9043C32.9549 28.8349 32.9549 29.7162 32.9549 30.5967C32.9549 31.9783 32.1893 32.7402 30.793 32.7431C29.2874 32.7468 27.7819 32.7431 26.2755 32.7431H25.843C25.843 33.6473 25.8467 34.5035 25.843 35.3589C25.843 35.8246 25.6806 35.9985 25.2242 35.9993C22.2624 36.0037 19.3004 36.0037 16.3381 35.9993C15.8809 35.9993 15.7215 35.8246 15.7185 35.3612C15.714 34.6243 15.7185 33.8875 15.7185 33.155C15.7185 33.0261 15.7058 32.8971 15.6975 32.7431H15.2149C11.1825 32.7431 7.15045 32.7431 3.11861 32.7431C2.85706 32.7525 2.59527 32.733 2.33813 32.6849C1.41473 32.4742 0.841528 31.7094 0.841528 30.7043C0.841528 23.3639 0.841528 16.0234 0.841528 8.68297C0.841528 8.05813 0.835541 7.43034 0.841528 6.8077C0.857242 5.80633 1.54792 5.0297 2.56262 4.90222C2.89412 4.86022 3.23609 4.87643 3.56834 4.87275C3.94772 4.86833 4.32711 4.87275 4.67807 4.87275C4.69479 4.84411 4.70881 4.81402 4.71997 4.78286C4.71997 3.82496 4.71997 2.87148 4.73344 1.9158C4.73905 1.50222 4.88128 1.1017 5.13861 0.774792C5.39593 0.447887 5.75437 0.212382 6.1597 0.103895C6.32732 0.0596844 6.49943 0.0338948 6.66929 0ZM5.6965 7.11939V7.39128C5.6965 13.5542 5.6965 19.7175 5.6965 25.8809C5.6965 26.5544 6.07065 26.9405 6.75161 26.942C9.80018 26.9493 12.8488 26.9493 15.8973 26.942C15.9847 26.9288 16.0706 26.9076 16.154 26.8786C15.9782 26.816 15.8869 26.7828 15.7956 26.7519C15.075 26.5043 14.8138 25.8853 15.1805 25.2332C16.8118 22.3315 18.4475 19.4333 20.0878 16.5385C20.435 15.9262 21.1152 15.935 21.4722 16.5458C21.782 17.0764 22.0783 17.6143 22.3799 18.1499C23.7014 20.4931 25.0221 22.8365 26.3421 25.1802C26.7477 25.9015 26.5067 26.4947 25.7121 26.7666C25.6282 26.7953 25.5504 26.8403 25.3858 26.9206C25.5714 26.9346 25.6567 26.9464 25.7412 26.9464C28.7404 26.9464 31.7394 26.9464 34.7381 26.9464C35.5058 26.9464 35.8605 26.578 35.8642 25.8035C35.8642 19.701 35.8642 13.599 35.8642 7.49739V7.11939H35.3382C29.4516 7.11939 23.5649 7.1216 17.6783 7.12602C17.1919 7.12602 16.8237 6.98307 16.4967 6.62865C15.937 6.02149 15.3533 5.43349 14.7599 4.86022C14.6234 4.73053 14.4448 4.65228 14.2556 4.63917C12.9086 4.62149 11.5677 4.62886 10.2237 4.63033C10.1175 4.63033 10.0105 4.64433 9.88325 4.65391V5.96844C9.88325 6.82244 9.58393 7.12234 8.72413 7.12307L5.6965 7.11939ZM4.72371 5.8336C4.11759 5.8336 3.57133 5.8336 3.02582 5.8336C2.16078 5.83654 1.81432 6.18139 1.81432 7.04497C1.81432 14.886 1.81432 22.7265 1.81432 30.5665C1.81432 31.4574 2.14432 31.7845 3.04677 31.7852H15.7192C15.7192 31.212 15.7088 30.6881 15.7192 30.1642C15.735 29.501 16.1338 29.1238 16.8005 29.1112C17.0198 29.1076 17.2398 29.1112 17.4987 29.1112C17.4778 28.8902 17.4725 28.7207 17.4426 28.5549C17.3288 27.9117 17.3258 27.9117 16.6636 27.9117C13.4289 27.9117 10.1943 27.9117 6.95963 27.9117C5.48623 27.9117 4.72371 27.1623 4.72371 25.7232C4.72371 19.2547 4.72371 12.7865 4.72371 6.31844V5.8336ZM35.865 6.1637C35.865 4.77696 35.865 3.44327 35.865 2.11106C35.865 1.37421 35.4983 1.00137 34.7425 1.00137C25.4352 1.00137 16.1281 1.00137 6.8212 1.00137C6.04596 1.00137 5.69875 1.36464 5.69875 2.14201C5.69875 3.35583 5.69875 4.56893 5.69875 5.78128C5.69875 5.89917 5.71147 6.01781 5.7182 6.13644H8.9142C8.9142 5.63023 8.9142 5.15275 8.9142 4.67601C8.92093 4.01949 9.2629 3.67685 9.92665 3.67464C11.4322 3.67022 12.9378 3.67464 14.4434 3.66948C14.6109 3.66435 14.7774 3.6954 14.9314 3.76045C15.0854 3.8255 15.223 3.92297 15.3346 4.04601C15.9333 4.66938 16.5499 5.27507 17.1418 5.90433C17.2218 5.99486 17.322 6.06601 17.4345 6.11227C17.547 6.15853 17.6689 6.17865 17.7905 6.17107C23.6642 6.1637 29.5371 6.16198 35.4093 6.16591L35.865 6.1637ZM25.5654 25.7822C24.1596 23.2818 22.7593 20.7945 21.3644 18.3202L21.2701 18.3474C21.2701 19.0533 21.2627 19.7592 21.2806 20.4644C21.2806 20.5498 21.4086 20.6552 21.5051 20.7112C22.1352 21.0907 22.4293 21.7472 22.2497 22.4023C22.1626 22.718 21.9737 22.9972 21.7115 23.198C21.4493 23.3988 21.1279 23.5103 20.7957 23.5156C20.4565 23.5269 20.1238 23.4218 19.8546 23.2183C19.5853 23.0148 19.3961 22.7256 19.3193 22.4001C19.142 21.7266 19.4316 21.0959 20.0579 20.7053C20.1205 20.6591 20.1728 20.6006 20.2115 20.5335C20.2501 20.4664 20.2742 20.3922 20.2824 20.3155C20.3093 19.8145 20.2929 19.312 20.2929 18.8094V18.3349L20.1918 18.329L16.0066 25.7601C17.6267 26.3378 18.4416 27.4482 18.4932 29.0913H23.0578C23.3946 27.0798 23.8054 26.533 25.5654 25.7822ZM16.7354 30.0831V35.0104H24.844V30.0831H16.7354ZM24.0157 29.1053C24.3052 29.1053 24.5013 29.098 24.6959 29.1053C24.8567 29.1053 25.0168 29.1254 25.1725 29.165C25.6035 29.3021 25.837 29.6676 25.846 30.1966C25.8535 30.7168 25.846 31.2378 25.846 31.769C27.6255 31.769 29.3413 31.7779 31.0564 31.7639C31.5967 31.7595 31.9693 31.3557 31.9821 30.806C31.9948 30.2799 31.9858 29.753 31.9858 29.2269V27.9028C29.4588 27.9028 26.9864 27.9028 24.5133 27.9094C24.4623 27.9144 24.4134 27.9315 24.3705 27.959C24.3277 27.9866 24.2922 28.0239 24.2671 28.0679C24.1691 28.3877 24.1055 28.7178 24.0157 29.1053ZM21.315 22.0059C21.3146 21.9359 21.3 21.8667 21.2721 21.8023C21.2443 21.7379 21.2038 21.6796 21.1529 21.6307C21.102 21.5819 21.0418 21.5434 20.9758 21.5176C20.9097 21.4918 20.8391 21.4792 20.768 21.4805C20.6242 21.4862 20.4885 21.5477 20.3904 21.6514C20.2923 21.7552 20.2398 21.8929 20.2442 22.0346C20.2487 22.3551 20.4635 22.5614 20.7845 22.5504C20.9279 22.5467 21.0641 22.4875 21.1634 22.3855C21.2628 22.2836 21.3173 22.1471 21.315 22.0059Z" fill="white"/>
<path d="M29.134 19.5854C28.4852 16.7758 25.8774 14.1659 22.876 13.5345C22.8573 13.6258 22.8371 13.7172 22.8221 13.8086C22.739 14.2964 22.4098 14.6154 21.9174 14.6265C21.1691 14.6434 20.4208 14.6456 19.6777 14.6265C19.1135 14.6125 18.8307 14.2743 18.7304 13.5639C16.3934 13.908 13.2865 16.2166 12.4447 19.5722C12.6168 19.5876 12.7844 19.5987 12.9513 19.6186C13.4137 19.6731 13.7564 19.9701 13.7744 20.4247C13.8036 21.2197 13.8051 22.0177 13.7744 22.8121C13.7549 23.2778 13.3838 23.5975 12.9049 23.6079C12.1468 23.6255 11.3866 23.6263 10.6285 23.6079C10.1092 23.5968 9.74029 23.2262 9.73057 22.7141C9.7156 21.9772 9.7156 21.2421 9.73057 20.5087C9.74104 19.9826 10.1047 19.6481 10.6652 19.6061C11.397 19.5515 11.394 19.5501 11.629 18.8618C12.4387 16.4944 13.9622 14.7075 16.163 13.4748C16.2661 13.4254 16.3534 13.3489 16.4151 13.2537H14.6768C13.8432 13.2537 13.0089 13.2537 12.1753 13.2537C11.9897 13.2537 11.8655 13.2758 11.7667 13.4748C11.5721 13.8692 11.2425 14.1835 10.8359 14.3623C10.4293 14.5411 9.97167 14.5731 9.54349 14.4526C9.11962 14.3381 8.74872 14.0834 8.49318 13.7312C8.23765 13.3791 8.11308 12.951 8.14043 12.5191C8.18757 11.6025 8.84308 10.9128 9.8024 10.7706C10.2308 10.7051 10.6688 10.7904 11.0397 11.0114C11.4105 11.2324 11.6905 11.575 11.8303 11.979C11.9238 12.245 12.0548 12.2995 12.3062 12.298C14.3221 12.2899 16.3381 12.2936 18.354 12.2936H18.7431C18.7431 12.0387 18.7356 11.8102 18.7431 11.5826C18.7655 11.0108 19.0911 10.6453 19.6605 10.6247C20.4088 10.5981 21.1571 10.5974 21.8994 10.6247C22.4674 10.646 22.7929 11.0189 22.8101 11.5877C22.8168 11.8088 22.8101 12.0239 22.8101 12.2649C22.9515 12.2759 23.0593 12.2914 23.1663 12.2914C25.2077 12.2914 27.2483 12.2914 29.2897 12.2958C29.5141 12.2958 29.6301 12.259 29.7132 12.0151C29.8493 11.6031 30.1293 11.252 30.5034 11.0241C30.8776 10.7963 31.3217 10.7064 31.7568 10.7706C32.7273 10.9054 33.3844 11.5686 33.4667 12.4904C33.5064 12.9151 33.3952 13.3403 33.152 13.6933C32.9088 14.0464 32.5487 14.3053 32.1332 14.426C31.2135 14.7009 30.3231 14.3354 29.8426 13.5028C29.782 13.3974 29.6414 13.267 29.5358 13.2655C28.0939 13.25 26.6511 13.2552 25.1269 13.2552C25.1973 13.3205 25.2723 13.3808 25.3513 13.4357C27.7554 14.7488 29.336 16.7063 30.0933 19.3084C30.1644 19.553 30.2729 19.6223 30.5056 19.6031C30.6802 19.5917 30.8555 19.5952 31.0294 19.6134C31.557 19.6613 31.9005 20.0069 31.9095 20.5279C31.9229 21.2509 31.9229 21.974 31.9095 22.6971C31.899 23.2284 31.5278 23.5975 30.9875 23.6086C30.2392 23.6238 29.4927 23.6238 28.7479 23.6086C28.2525 23.5975 27.8799 23.2814 27.8567 22.7914C27.8192 22.0096 27.82 21.2234 27.8567 20.4409C27.8784 19.948 28.2308 19.6584 28.7404 19.6105C28.8586 19.6002 28.9821 19.5957 29.134 19.5854ZM21.8366 13.6789V11.6047H19.7264V13.6789H21.8366ZM28.7913 20.578V22.6551H30.9075V20.578H28.7913ZM10.6779 22.6455H12.8046V20.5986H10.6779V22.6455ZM10.9907 12.6326C10.9947 12.5085 10.9734 12.385 10.9281 12.2692C10.8828 12.1534 10.8144 12.0477 10.7269 11.9584C10.6394 11.869 10.5346 11.7979 10.4186 11.7492C10.3027 11.7004 10.1781 11.6751 10.0521 11.6746C9.92604 11.6741 9.80118 11.6985 9.68489 11.7463C9.5686 11.7941 9.46323 11.8645 9.375 11.9531C9.28678 12.0417 9.21749 12.1468 9.17124 12.2623C9.12499 12.3777 9.10272 12.5011 9.10573 12.6252C9.10421 12.7476 9.12766 12.8691 9.17467 12.9824C9.22168 13.0958 9.29132 13.1987 9.37944 13.285C9.46757 13.3714 9.5724 13.4395 9.68772 13.4852C9.80305 13.531 9.92652 13.5535 10.0508 13.5514C10.6121 13.5492 10.9892 13.1808 10.9907 12.6326ZM31.5331 11.6931C31.4091 11.6918 31.2862 11.7146 31.1712 11.7602C31.0562 11.8057 30.9515 11.8731 30.863 11.9585C30.7745 12.0439 30.7039 12.1456 30.6553 12.2578C30.6067 12.3701 30.581 12.4907 30.5797 12.6127C30.5784 12.7347 30.6016 12.8558 30.6478 12.969C30.6941 13.0822 30.7625 13.1853 30.8492 13.2725C30.9359 13.3597 31.0392 13.4292 31.1532 13.477C31.2672 13.5249 31.3897 13.5502 31.5136 13.5514C32.0816 13.5558 32.4475 13.2014 32.4542 12.6421C32.4589 12.5198 32.4386 12.3978 32.3946 12.2833C32.3505 12.1688 32.2835 12.0642 32.1976 11.9757C32.1117 11.8872 32.0086 11.8166 31.8944 11.768C31.7803 11.7195 31.6574 11.694 31.5331 11.6931Z" fill="white"/>
<path d="M28.691 3.54556C28.697 3.19286 28.8432 2.85652 29.098 2.60861C29.3528 2.36069 29.6962 2.22092 30.0544 2.21924C30.419 2.22129 30.7678 2.36587 31.0241 2.62116C31.2804 2.87646 31.4232 3.22157 31.4212 3.58056C31.4191 3.93955 31.2723 4.28302 31.013 4.53542C30.7537 4.78781 30.4032 4.92846 30.0387 4.9264C29.8576 4.92442 29.6788 4.88695 29.5126 4.81619C29.3465 4.74542 29.1963 4.64277 29.0708 4.51423C28.9453 4.38569 28.8471 4.23383 28.7819 4.06752C28.7167 3.9012 28.6858 3.72376 28.691 3.54556ZM30.5034 3.67745L30.5079 3.50651C30.3582 3.39966 30.2085 3.21177 30.0589 3.21177C29.9272 3.21177 29.7259 3.4085 29.6847 3.5544C29.6686 3.60469 29.6657 3.65823 29.6766 3.7099C29.6874 3.76157 29.7114 3.80965 29.7465 3.84955C29.7815 3.88945 29.8264 3.91985 29.8767 3.93783C29.9271 3.95582 29.9813 3.9608 30.0342 3.9523C30.1973 3.93461 30.347 3.77398 30.5034 3.67745Z" fill="white"/>
<path d="M28.1047 3.56349C28.1064 3.74152 28.0722 3.91812 28.0042 4.08308C27.9362 4.24804 27.8356 4.39808 27.7084 4.52456C27.5811 4.65103 27.4297 4.75142 27.2628 4.81993C27.0959 4.88844 26.9169 4.92371 26.7361 4.92371C26.4642 4.92487 26.1981 4.84664 25.9714 4.69891C25.7448 4.55118 25.5676 4.34058 25.4625 4.09373C25.3573 3.84689 25.3289 3.57489 25.3807 3.31212C25.4325 3.04934 25.5623 2.8076 25.7536 2.61745C25.9449 2.42729 26.1892 2.29727 26.4556 2.24382C26.722 2.19036 26.9984 2.21588 27.2501 2.31713C27.5017 2.41839 27.7172 2.59084 27.8694 2.81269C28.0215 3.03454 28.1034 3.29581 28.1047 3.56349ZM26.8176 3.13023H26.6515C26.5482 3.28275 26.3604 3.43897 26.3664 3.58781C26.3716 3.71897 26.5752 3.91718 26.7226 3.95034C26.7746 3.96324 26.8291 3.96305 26.881 3.94978C26.9329 3.93651 26.9806 3.91059 27.0196 3.8744C27.0587 3.83821 27.0879 3.79292 27.1045 3.74271C27.1211 3.6925 27.1246 3.63897 27.1147 3.58707C27.0908 3.42423 26.9216 3.28202 26.8176 3.13023Z" fill="white"/>
<path d="M33.3828 4.92389C33.1112 4.92663 32.8449 4.85008 32.6175 4.7039C32.39 4.55772 32.2116 4.34847 32.1048 4.10255C31.9981 3.85664 31.9676 3.58508 32.0175 3.32216C32.0673 3.05925 32.195 2.81675 32.3847 2.62528C32.5743 2.43382 32.8173 2.30197 33.083 2.24637C33.3487 2.19077 33.6251 2.21392 33.8775 2.31289C34.1298 2.41187 34.3467 2.58223 34.5008 2.80248C34.6549 3.02273 34.7392 3.28299 34.7432 3.55041C34.7447 3.90928 34.6029 4.25435 34.3485 4.51126C34.094 4.76817 33.7472 4.91636 33.3828 4.92389ZM33.299 4.02936L33.4696 4.02273C33.5692 3.86652 33.736 3.71694 33.7517 3.55336C33.7587 3.5009 33.7523 3.44755 33.7331 3.39814C33.7139 3.34873 33.6825 3.30481 33.6417 3.27036C33.6009 3.23591 33.5521 3.21201 33.4996 3.20083C33.447 3.18965 33.3925 3.19153 33.3409 3.20631C33.1913 3.24536 32.9975 3.45094 32.996 3.58357C32.9945 3.73094 33.189 3.88052 33.299 4.02936Z" fill="white"/>
</g>
<defs>
<clipPath id="clip0_421_27117">
<rect width="36" height="36" fill="white" transform="translate(0.841797)"/>
</clipPath>
</defs>
</svg>
