<svg width="41" height="40" viewBox="0 0 41 40" fill="none" xmlns="http://www.w3.org/2000/svg">
<g clip-path="url(#clip0_421_27152)">
<path d="M28.9856 39.0692C28.6842 38.8774 28.3516 38.7201 28.0878 38.4853C27.7426 38.1777 27.6134 37.7417 27.6181 37.2837C27.6181 37.0606 27.5359 36.9667 27.334 36.8924C26.9551 36.7593 26.5872 36.5933 26.1817 36.4274C25.8131 36.8055 25.3786 37.1186 24.7861 37.1256C24.307 37.1311 23.8875 36.9918 23.5415 36.6614C23.1744 36.3108 22.808 35.957 22.462 35.5875C21.7795 34.8556 21.7818 33.8654 22.4707 33.128C22.6272 32.9613 22.6695 32.8423 22.5583 32.6263C22.3744 32.2694 22.2374 31.8889 22.0668 31.4858H15.7264C15.6094 31.4905 15.4922 31.4874 15.3757 31.4764C15.1724 31.4562 14.9853 31.3564 14.8554 31.1987C14.7254 31.041 14.6632 30.8384 14.6822 30.6349C14.7088 30.2232 15.0156 29.9234 15.4594 29.9211C16.8269 29.9117 18.1936 29.9211 19.5603 29.9164H20.0245C20.0245 29.4115 20.0245 28.9465 20.0245 28.4823C20.0316 27.2949 20.6546 26.6342 21.8437 26.5254C21.9075 26.5167 21.9686 26.4941 22.0227 26.4592C22.0768 26.4243 22.1225 26.378 22.1568 26.3235C22.3368 25.9368 22.4824 25.5329 22.6491 25.1141C22.5662 25.0233 22.4675 24.9208 22.3759 24.8127C22.0888 24.4866 21.9339 24.0649 21.9417 23.6304C21.9495 23.1959 22.1195 22.78 22.4182 22.4645C22.754 22.102 23.1078 21.7553 23.4648 21.4132C24.1849 20.7212 25.1868 20.6993 25.9234 21.3795C26.123 21.5651 26.2772 21.6058 26.4925 21.4492C26.5562 21.4038 26.6275 21.3702 26.7031 21.3498C27.2612 21.1932 27.6424 20.9709 27.6854 20.2602C27.7285 19.5494 28.4064 19.0414 29.1171 18.9804C29.6752 18.9369 30.2354 18.9283 30.7946 18.9545C31.7989 18.9953 32.4642 19.6442 32.5346 20.6516C32.5527 20.9138 32.6286 21.0375 32.8838 21.1134C33.193 21.2066 33.4794 21.3733 33.7855 21.4774C33.8453 21.4969 33.9085 21.5034 33.971 21.4965C34.0335 21.4896 34.0938 21.4695 34.1479 21.4375C34.7319 20.9678 34.8947 20.8895 35.6986 20.8559V12.9648H1.75012C1.7423 13.0971 1.72977 13.2216 1.72977 13.3468C1.72977 17.9286 1.72977 22.5106 1.72977 27.0929C1.72977 27.7724 1.87458 28.4103 2.26675 28.9716C2.6957 29.5907 3.27338 29.9234 4.04519 29.9187C5.50269 29.9088 6.96072 29.9088 8.41927 29.9187C9.00321 29.9187 9.35859 30.361 9.23178 30.8893C9.14646 31.2416 8.86153 31.4788 8.45841 31.4803C6.85687 31.4866 5.25456 31.5179 3.65459 31.4662C2.11411 31.4208 0.738794 30.1535 0.326277 28.4636C0.219453 28.0214 0.165327 27.5682 0.165028 27.1133C0.155635 19.8492 0.153026 12.5855 0.1572 5.32194C0.161114 3.72823 0.721573 2.39675 2.07967 1.47857C2.67926 1.07545 3.35949 0.943941 4.08119 0.944724C11.5409 0.950986 18.9999 0.95229 26.4581 0.948637C28.7234 0.948637 30.9903 1.005 33.2532 0.932982C35.6313 0.854706 37.0614 2.77248 37.2618 4.61197C37.2959 4.94928 37.3116 5.2882 37.3087 5.62721C37.3087 10.95 37.3119 16.2728 37.3181 21.5956C37.3181 21.7842 37.3745 22.0206 37.4942 22.1529C38.4766 23.23 38.4985 23.9799 37.5373 25.0953C37.7064 25.5211 37.8731 25.9564 38.0555 26.3806C38.0745 26.4182 38.102 26.4509 38.1359 26.476C38.1697 26.5012 38.2089 26.5181 38.2504 26.5254C39.2304 26.5082 39.8104 27.0389 40.1572 27.8968V30.0839C39.9286 30.7101 39.5787 31.3269 38.897 31.3762C38.1439 31.4302 37.9028 31.8357 37.733 32.4275C37.7175 32.4903 37.691 32.55 37.6547 32.6036C37.506 32.8055 37.549 32.9496 37.7228 33.1343C38.4202 33.8787 38.4062 34.8869 37.7032 35.6204C37.3713 35.9679 37.0332 36.3115 36.6856 36.638C36.0446 37.2352 35.1099 37.2963 34.4313 36.7945C34.2747 36.681 34.1401 36.5456 34.0109 36.4344C33.5867 36.6059 33.1875 36.7593 32.7969 36.9315C32.71 36.9698 32.5902 37.0763 32.591 37.1507C32.591 38.1432 32.0728 38.7405 31.182 39.0669L28.9856 39.0692ZM1.74543 11.3273H35.7268C35.7268 10.9805 35.7268 10.658 35.7268 10.3355C35.7268 8.55162 35.7518 6.7677 35.7064 4.98457C35.6673 3.43548 34.6771 2.51651 33.1421 2.51651H29.2361C20.8636 2.51651 12.4915 2.51469 4.11955 2.51103C3.38532 2.51103 2.79981 2.76073 2.3552 3.3345C1.91059 3.90827 1.72899 4.58223 1.72899 5.3055C1.72899 7.19352 1.72899 9.08129 1.72899 10.9688C1.72977 11.0823 1.74151 11.1966 1.74934 11.3273H1.74543ZM24.7195 22.4778C24.6759 22.485 24.6338 22.4995 24.5951 22.5208C24.4328 22.6711 24.2734 22.824 24.1168 22.9795C23.4436 23.6496 23.4444 23.6503 24.0878 24.3149C24.5074 24.7478 24.5192 24.9959 24.2593 25.5352C23.9779 26.104 23.7324 26.6899 23.5243 27.2894C23.3082 27.9352 23.1258 28.1144 22.4448 28.1184C21.6049 28.1238 21.601 28.1238 21.6065 28.9794C21.6127 30.0706 21.4828 29.9093 22.5286 29.9187C23.125 29.925 23.32 30.105 23.5102 30.6592C23.7178 31.2724 23.9638 31.8718 24.2467 32.4541C24.5372 33.0427 24.5309 33.2862 24.055 33.7636C23.4554 34.3648 23.4554 34.3648 24.055 34.9613C24.7227 35.629 24.7227 35.629 25.3911 34.9777C25.8178 34.5621 26.062 34.5589 26.6123 34.8298C27.1691 35.1093 27.7445 35.3501 28.3343 35.5507C29.0388 35.7855 29.1954 35.9421 29.1954 36.6802C29.2009 37.5984 29.1007 37.4966 30.004 37.499C30.9824 37.499 30.9824 37.499 31.0012 36.5096C31.0114 35.9703 31.1938 35.7793 31.7206 35.5945C32.3339 35.3866 32.9338 35.1411 33.517 34.8595C34.1432 34.5464 34.3561 34.5464 34.8602 35.0411C35.5647 35.7292 35.3636 35.7213 36.0586 35.0356C36.731 34.3734 36.7263 34.3687 36.0704 33.6979C35.6673 33.2862 35.6579 33.0239 35.9084 32.5104C36.1912 31.9423 36.438 31.357 36.6473 30.7578C36.8821 30.0674 37.0269 29.9203 37.7486 29.9187C38.6833 29.9187 38.5838 29.997 38.5862 29.0819C38.5862 28.1371 38.5862 28.1371 37.6547 28.1176C37.0794 28.1058 36.879 27.9117 36.6841 27.3536C36.4746 26.7406 36.2267 26.1414 35.942 25.5595C35.6461 24.9607 35.6516 24.7321 36.1267 24.2468C36.8195 23.5384 36.8187 23.7419 36.1369 23.0492C35.4731 22.376 35.4692 22.3799 34.8007 23.0265C34.3781 23.4351 34.1111 23.439 33.5781 23.183C32.9845 22.8939 32.3735 22.6419 31.7488 22.4285C31.1554 22.2273 30.966 22.0332 30.966 21.3952C30.9574 20.5342 30.9574 20.5342 30.0877 20.5342C29.1711 20.5342 29.1711 20.5342 29.1594 21.4657C29.1523 22.0496 28.9692 22.2484 28.4001 22.4324C27.8682 22.5984 27.3498 22.8049 26.8494 23.05C25.9195 23.5196 25.8632 23.5306 25.1086 22.7823C25.035 22.7087 24.9638 22.632 24.8839 22.5654C24.8335 22.531 24.7797 22.5016 24.7235 22.4778H24.7195Z" fill="white"/>
<path d="M17.7512 21.3929C17.1469 20.7126 16.5505 20.0449 15.9579 19.3725C15.5838 18.9491 15.5728 18.4833 15.9227 18.1663C16.2726 17.8493 16.7462 17.9017 17.1195 18.3158C17.8146 19.0887 18.5058 19.8649 19.1931 20.6445C19.6338 21.1471 19.6385 21.6887 19.2025 22.1889C18.5113 22.9826 17.8092 23.767 17.1047 24.549C16.7524 24.9403 16.2757 24.9904 15.9305 24.6906C15.5744 24.3775 15.5767 23.9008 15.9446 23.4836C16.5286 22.8206 17.1188 22.1623 17.7035 21.5009C17.7232 21.4667 17.7392 21.4305 17.7512 21.3929Z" fill="white"/>
<path d="M6.35843 21.4234C6.96116 22.1013 7.54353 22.7478 8.11573 23.403C8.24901 23.5436 8.35516 23.7076 8.42884 23.8867C8.48461 24.0557 8.47846 24.2389 8.41148 24.4037C8.34451 24.5685 8.22108 24.704 8.06329 24.7861C7.90802 24.8717 7.72829 24.9021 7.55353 24.8722C7.37876 24.8424 7.21931 24.7541 7.10127 24.6218C6.67545 24.1654 6.26528 23.6934 5.84885 23.2269C5.53575 22.877 5.22264 22.531 4.91815 22.1741C4.51111 21.6919 4.49937 21.1565 4.9064 20.6868C5.61559 19.8733 6.3339 19.0668 7.06135 18.2673C7.39794 17.8963 7.8723 17.8626 8.20654 18.1601C8.54078 18.4575 8.56113 18.9366 8.23393 19.3115C7.62729 20.0074 7.00812 20.6931 6.35843 21.4234Z" fill="white"/>
<path d="M13.6278 18.2735C13.4783 18.8997 13.3053 19.6191 13.1347 20.34C12.7887 21.7933 12.4433 23.2474 12.0983 24.7023C12.0889 24.7399 12.0756 24.7767 12.0647 24.8143C11.9222 25.3043 11.5402 25.5626 11.1097 25.4593C10.6792 25.3559 10.4263 24.956 10.5406 24.4613C10.8616 23.0679 11.1981 21.6785 11.5308 20.2883C11.7179 19.5056 11.8972 18.7181 12.1046 17.94C12.151 17.755 12.2653 17.5941 12.4248 17.4894C12.5843 17.3847 12.7774 17.3438 12.9656 17.3749C13.3633 17.4469 13.6349 17.7725 13.6278 18.2735Z" fill="white"/>
<path d="M11.9826 29.921C12.0868 29.919 12.1903 29.9381 12.2869 29.9771C12.3835 30.0161 12.4712 30.0742 12.5448 30.148C12.6183 30.2218 12.6762 30.3097 12.7149 30.4064C12.7536 30.5031 12.7724 30.6067 12.7701 30.7109C12.7682 30.915 12.6868 31.1103 12.5431 31.2552C12.3993 31.4001 12.2047 31.4831 12.0006 31.4866C11.7903 31.4885 11.5875 31.4083 11.4354 31.263C11.2834 31.1177 11.1941 30.9187 11.1865 30.7085C11.1866 30.6044 11.2073 30.5013 11.2475 30.4053C11.2876 30.3092 11.3464 30.2221 11.4204 30.1489C11.4944 30.0756 11.5822 30.0178 11.6787 29.9787C11.7752 29.9396 11.8785 29.92 11.9826 29.921Z" fill="white"/>
<path d="M27.0764 9.61224C25.8921 9.61224 24.7077 9.62946 23.5234 9.60754C22.8286 9.5844 22.1708 9.28836 21.6927 8.78357C21.2146 8.27878 20.9547 7.60592 20.9693 6.91081C20.984 6.21571 21.2719 5.55437 21.7708 5.07014C22.2697 4.5859 22.9393 4.31778 23.6346 4.32389C25.9249 4.31841 28.2161 4.31136 30.5065 4.32389C32.0532 4.33328 33.2109 5.48159 33.2117 6.96493C33.2117 8.46862 32.0469 9.60128 30.472 9.61302C29.3401 9.62085 28.2075 9.61302 27.0748 9.61302L27.0764 9.61224ZM27.0529 8.04201H30.4501C30.9307 8.04201 31.3197 7.86981 31.5374 7.42285C31.8982 6.68079 31.355 5.91133 30.4532 5.90585C28.6192 5.89568 26.7844 5.90585 24.9496 5.90585C24.5074 5.90585 24.0643 5.89646 23.6189 5.91133C23.0953 5.92855 22.7195 6.20487 22.5786 6.64556C22.3438 7.37353 22.862 8.03262 23.6941 8.04123C24.8142 8.05376 25.9336 8.04201 27.0529 8.04201Z" fill="white"/>
<path d="M16.957 6.96429C16.9573 7.48756 16.8022 7.99913 16.5114 8.43413C16.2205 8.86913 15.8071 9.20797 15.3234 9.40767C14.8397 9.60737 14.3077 9.65894 13.7947 9.55584C13.2816 9.45275 12.8108 9.19962 12.4418 8.82857C12.0729 8.45752 11.8224 7.98526 11.7222 7.47167C11.622 6.95809 11.6766 6.42632 11.879 5.94379C12.0815 5.46126 12.4226 5.04972 12.8593 4.76135C13.2959 4.47298 13.8083 4.32077 14.3316 4.32403C15.0286 4.33 15.6952 4.61055 16.1867 5.10483C16.6782 5.59911 16.955 6.26724 16.957 6.96429ZM13.2616 6.97759C13.2624 7.11784 13.2908 7.25654 13.3453 7.38577C13.3998 7.515 13.4792 7.63223 13.579 7.73074C13.6789 7.82925 13.7971 7.90711 13.9271 7.95988C14.057 8.01264 14.1961 8.03927 14.3363 8.03824C14.6195 8.02826 14.8877 7.90816 15.0837 7.7035C15.2798 7.49884 15.3882 7.22576 15.386 6.94237C15.3757 6.66695 15.2598 6.40605 15.0624 6.2138C14.8649 6.02156 14.6009 5.91273 14.3253 5.90991C14.1848 5.90821 14.0454 5.9347 13.9154 5.98781C13.7853 6.04092 13.6671 6.11956 13.568 6.2191C13.4688 6.31864 13.3906 6.43704 13.338 6.56732C13.2853 6.6976 13.2594 6.8371 13.2616 6.97759Z" fill="white"/>
<path d="M4.834 6.98768C4.83214 6.46607 4.98515 5.95565 5.27363 5.52108C5.56212 5.08651 5.9731 4.74734 6.45451 4.54655C6.93593 4.34576 7.46611 4.29237 7.97789 4.39316C8.48967 4.49395 8.96001 4.74438 9.32934 5.11272C9.69867 5.48106 9.95036 5.95074 10.0525 6.46224C10.1547 6.97375 10.1027 7.50407 9.90322 7.98602C9.70371 8.46797 9.36565 8.87986 8.93185 9.16951C8.49805 9.45916 7.98804 9.61353 7.46643 9.61307C6.77043 9.61 6.10371 9.33263 5.6109 8.84114C5.11809 8.34965 4.83894 7.68367 4.834 6.98768ZM8.5263 6.95794C8.52495 6.67684 8.41199 6.4078 8.21227 6.20999C8.01256 6.01218 7.74244 5.90181 7.46135 5.90316C7.18025 5.90451 6.91121 6.01747 6.7134 6.21719C6.51559 6.4169 6.40522 6.68702 6.40657 6.96811C6.40792 7.2492 6.52088 7.51825 6.7206 7.71606C6.92031 7.91387 7.19043 8.02424 7.47152 8.02289C7.75262 8.02154 8.02166 7.90858 8.21947 7.70886C8.41728 7.50914 8.52765 7.23903 8.5263 6.95794Z" fill="white"/>
<path d="M25.2842 28.9935C25.2862 28.3614 25.413 27.736 25.6574 27.153C25.9017 26.5701 26.2587 26.0411 26.7079 25.5965C27.1571 25.1518 27.6897 24.8003 28.2751 24.5619C28.8606 24.3236 29.4873 24.2032 30.1193 24.2076C32.7737 24.2225 34.931 26.3994 34.9098 29.0475C34.8887 31.6729 32.711 33.8294 30.0849 33.8223C28.8089 33.8155 27.5875 33.3037 26.6879 32.3987C25.7882 31.4938 25.2835 30.2695 25.2842 28.9935ZM30.1084 25.7841C29.6796 25.7767 29.2536 25.8546 28.8552 26.0133C28.4568 26.1721 28.094 26.4085 27.7879 26.7088C27.4817 27.0091 27.2383 27.3673 27.0719 27.7625C26.9055 28.1577 26.8194 28.5821 26.8186 29.011C26.8178 29.4398 26.9022 29.8645 27.0671 30.2604C27.232 30.6563 27.4739 31.0154 27.7789 31.3169C28.0839 31.6184 28.4458 31.8562 28.8436 32.0165C29.2414 32.1768 29.667 32.2563 30.0958 32.2505C30.9447 32.2391 31.755 31.8942 32.3519 31.2905C32.9487 30.6867 33.2841 29.8724 33.2858 29.0235C33.2874 28.1745 32.9551 27.359 32.3606 26.7529C31.7662 26.1468 30.9572 25.7989 30.1084 25.7841Z" fill="white"/>
</g>
<defs>
<clipPath id="clip0_421_27152">
<rect width="40" height="38.1386" fill="white" transform="translate(0.157227 0.930664)"/>
</clipPath>
</defs>
</svg>
