<svg width="41" height="40" viewBox="0 0 41 40" fill="none" xmlns="http://www.w3.org/2000/svg">
<g clip-path="url(#clip0_421_27172)">
<path d="M40.8455 26.6667C40.6443 27.0124 40.3111 27.1368 39.9437 27.1677C39.0995 27.2411 38.4758 27.5392 38.257 28.4678C38.1819 28.7867 38.1134 29.0114 38.3313 29.2886C38.5618 29.5817 38.7397 29.9157 38.9459 30.2288C39.168 30.5628 39.1505 30.8834 38.8666 31.1723C38.3706 31.6772 37.8713 32.1796 37.3686 32.6795C37.098 32.9492 36.7933 32.9926 36.4626 32.7864C36.3682 32.7271 36.2756 32.6662 36.182 32.606C35.0439 31.8737 35.0423 31.8696 33.8223 32.439C33.7102 32.5061 33.6287 32.6142 33.5952 32.7405C33.4867 33.158 33.4123 33.5805 33.3155 33.9988C33.2044 34.4806 32.8913 34.7303 32.5097 34.6551C32.1139 34.5775 31.9143 34.2376 32.0087 33.7533C32.1306 33.1279 32.2817 32.5075 32.4087 31.8821C32.4746 31.5564 32.68 31.402 32.9781 31.2901C33.5468 31.0755 34.1112 30.8434 34.6607 30.5853C34.9846 30.4334 35.2644 30.4292 35.5583 30.6321C35.8088 30.8058 36.0944 30.936 36.324 31.1331C36.658 31.417 36.891 31.3444 37.1406 31.0296C37.2584 30.8809 37.4345 30.7791 37.6091 30.6321C37.3277 30.1929 37.0955 29.8029 36.8367 29.433C36.6021 29.099 36.6062 28.7934 36.7908 28.4269C37.0417 27.9185 37.2587 27.3941 37.4404 26.857C37.5673 26.4871 37.7744 26.2725 38.1593 26.2007C38.6052 26.1172 39.0469 26.0062 39.4953 25.906V24.7629C39.0394 24.6602 38.586 24.5458 38.1276 24.4581C37.756 24.3871 37.5681 24.1683 37.4437 23.8201C37.2492 23.2731 37.0262 22.7366 36.7757 22.2128C36.6146 21.8788 36.5895 21.5873 36.8108 21.2792C36.948 21.0873 37.0746 20.888 37.1899 20.6822C37.3085 20.4726 37.5481 20.1895 37.4863 20.0484C37.3652 19.7754 37.078 19.57 36.8392 19.3604C36.7916 19.3186 36.6329 19.3604 36.552 19.4071C36.2179 19.6042 35.8839 19.8096 35.5675 20.0301C35.251 20.2505 34.968 20.2271 34.6323 20.066C34.1084 19.8162 33.5722 19.5932 33.0257 19.398C32.6784 19.2735 32.4571 19.0907 32.3886 18.7149C32.3051 18.2649 32.1941 17.8215 32.0914 17.3572H31.5319V21.321C32.665 21.3828 33.6445 21.7744 34.4235 22.6069C34.8027 23.0098 35.0938 23.4873 35.2785 24.0088C35.4632 24.5303 35.5374 25.0846 35.4963 25.6364C35.4552 26.1881 35.2998 26.7253 35.0399 27.2137C34.7801 27.7022 34.4214 28.1312 33.9868 28.4736C33.5267 28.8368 33.1218 28.8519 32.8512 28.5162C32.5807 28.1805 32.6717 27.8248 33.1476 27.4307C34.0336 26.6942 34.3751 25.7507 34.0753 24.6409C33.7806 23.5496 33.0224 22.91 31.9102 22.6996C31.7778 22.6829 31.6445 22.6743 31.511 22.6737V23.1947C31.511 27.598 31.511 32.0007 31.511 36.4028C31.511 38.6047 30.1208 40.0008 27.928 40.0008C23.2053 40.0008 18.4822 40.0008 13.7589 40.0008C11.5653 40.0008 10.1742 38.6047 10.1742 36.4053C10.1742 32.4463 10.1742 28.4881 10.1742 24.5307V24.0013C9.81932 24.0013 9.50619 24.0013 9.18806 24.0013C8.69373 23.9955 8.48916 23.8343 8.37393 23.3459C8.2779 22.9409 8.21695 22.5267 8.0942 22.1301C8.04744 21.979 7.88796 21.8487 7.75269 21.7443C7.64664 21.6608 7.48047 21.6608 7.37276 21.5832C6.80579 21.1657 6.3432 21.3677 5.82216 21.7276C4.75419 22.4658 4.73665 22.439 3.82232 21.5264C3.49751 21.1999 3.1752 20.8751 2.84871 20.5528C2.54644 20.2572 2.50302 19.9382 2.73682 19.5808C2.97062 19.2234 3.18689 18.8803 3.41067 18.5287C3.45056 18.4719 3.48709 18.4128 3.52005 18.3517C3.63111 18.1237 3.01905 16.8011 2.76855 16.741C2.33685 16.6374 1.90098 16.5498 1.47096 16.4437C1.00419 16.3285 0.843033 16.1289 0.837188 15.6571C0.832178 14.9891 0.837188 14.3211 0.837188 13.6573C0.837188 13.2356 1.02757 12.981 1.44758 12.8933C1.88178 12.8023 2.31347 12.6996 2.74517 12.5969C2.83452 12.5751 2.96812 12.5509 2.99567 12.4883C3.20025 12.0499 3.39146 11.604 3.56514 11.1523C3.59019 11.0888 3.51003 10.9753 3.46077 10.8968C3.2253 10.5202 2.98732 10.1453 2.74183 9.77538C2.50719 9.42051 2.53976 9.10154 2.8412 8.80093C3.33218 8.30995 3.82205 7.81758 4.3108 7.32381C4.59721 7.0349 4.91033 7.00568 5.25018 7.22612C5.33368 7.27872 5.41718 7.33049 5.50068 7.38143C5.8781 7.61356 6.24383 8.001 6.63712 8.03273C7.03041 8.06446 7.45125 7.74967 7.85122 7.56179C7.96461 7.49856 8.04903 7.39379 8.08669 7.26954C8.20359 6.82699 8.28208 6.37525 8.3923 5.93353C8.49834 5.50518 8.8098 5.2814 9.16468 5.34903C9.55128 5.41917 9.76838 5.75067 9.68238 6.20073C9.55796 6.85371 9.43689 7.51169 9.24901 8.14796C9.18722 8.36005 8.95509 8.57715 8.74801 8.67986C8.17937 8.96042 7.57399 9.16834 6.9945 9.43136C6.69975 9.5658 6.43922 9.57582 6.16868 9.4013C5.83468 9.18253 5.50068 8.9504 5.1458 8.76169C5.07908 8.73752 5.00775 8.72879 4.93717 8.73616C4.86659 8.74354 4.7986 8.76683 4.73832 8.80427C4.5067 8.98276 4.2864 9.17546 4.07867 9.38126C4.3751 9.84385 4.62142 10.2438 4.88278 10.6338C5.08401 10.9327 5.06648 11.2116 4.91618 11.5322C4.66568 12.0691 4.43522 12.6177 4.23064 13.1772C4.10957 13.5112 3.92921 13.7199 3.57349 13.7901C3.11257 13.8803 2.65499 13.9972 2.18822 14.1057V15.2305C2.63829 15.334 3.09003 15.4501 3.54761 15.5394C3.91835 15.6112 4.11124 15.8241 4.23649 16.174C4.431 16.7211 4.65397 17.2576 4.90449 17.7814C5.06481 18.1154 5.09153 18.4043 4.8761 18.7158C4.67069 19.0122 4.50118 19.3345 4.28575 19.6226C4.11458 19.8522 4.16551 19.9933 4.35589 20.1795C4.92035 20.7331 4.912 20.7406 5.58836 20.3081C5.61259 20.2943 5.63576 20.2786 5.65766 20.2614C6.22713 19.772 6.78909 19.6769 7.45709 20.1411C7.80863 20.3866 8.27122 20.4801 8.69206 20.6179C9.01187 20.7223 9.21561 20.9001 9.28241 21.2425C9.37176 21.7042 9.48448 22.161 9.5922 22.6428H10.15V18.6815C9.26989 18.6289 8.46327 18.3826 7.75603 17.8465C5.65349 16.2483 5.64931 13.0519 7.76688 11.488C7.95893 11.3452 8.26204 11.2375 8.48081 11.2792C8.67119 11.3168 8.93505 11.5832 8.94924 11.7652C8.94954 11.8964 8.92252 12.0262 8.8699 12.1464C8.81729 12.2666 8.74023 12.3745 8.64363 12.4633C8.07249 12.9359 7.68672 13.4928 7.54727 14.2243C7.24834 15.7924 8.51755 17.3205 10.175 17.3138V16.8295C10.175 12.4407 10.175 8.05194 10.175 3.66316C10.1734 1.70341 11.0476 0.561122 12.9447 0.0475952C12.9698 0.0409152 12.989 0.0158651 13.0107 0H28.6762C28.6987 0.0158651 28.718 0.0409152 28.743 0.0475952C30.6368 0.561122 31.5102 1.7009 31.5102 3.66399V15.9995C31.8693 15.9995 32.1724 15.9995 32.4763 15.9995C32.9973 16.0045 33.1986 16.1665 33.3163 16.675C33.4123 17.0925 33.4833 17.5184 33.596 17.9334C33.6329 18.0579 33.7167 18.1633 33.8298 18.2273C34.2298 18.416 34.6598 18.7358 35.0498 18.6982C35.4581 18.659 35.833 18.2674 36.2188 18.0302C36.2898 17.9868 36.3591 17.9409 36.4292 17.895C36.7632 17.6728 37.083 17.7029 37.3694 17.9885C37.8612 18.4786 38.3505 18.9713 38.8432 19.4606C39.1463 19.7612 39.1655 20.0827 38.9351 20.435C38.6912 20.8066 38.4407 21.174 38.2253 21.5615C38.1662 21.7017 38.1545 21.8574 38.1919 22.0048C38.3948 23.0235 39.0519 23.4636 40.0631 23.5362C40.3328 23.5554 40.5825 23.8385 40.8422 24.0005L40.8455 26.6667ZM11.5069 19.98V36.351C11.5069 37.8866 12.2792 38.6657 13.8006 38.6657H27.8838C29.3868 38.6657 30.1767 37.8858 30.1767 36.3903V3.60554C30.1767 2.11256 29.3893 1.3335 27.8821 1.3335H13.7989C12.2901 1.3335 11.5069 2.11005 11.5069 3.60805C11.5057 9.06563 11.5057 14.5229 11.5069 19.98Z" fill="white"/>
<path d="M6.17293 28.583C6.17794 28.1655 6.47687 27.8548 6.86348 27.8707C7.03713 27.8793 7.20072 27.9548 7.31995 28.0814C7.43918 28.2079 7.50481 28.3757 7.50309 28.5496C7.50133 28.7371 7.42577 28.9164 7.29277 29.0486C7.15977 29.1808 6.98004 29.2553 6.7925 29.256C6.40923 29.2443 6.16792 28.9821 6.17293 28.583Z" fill="white"/>
<path d="M6.17285 31.2634C6.17285 30.8459 6.4626 30.5303 6.8492 30.537C7.02349 30.5419 7.18904 30.6144 7.31099 30.739C7.43294 30.8636 7.50178 31.0306 7.50301 31.205C7.5046 31.3925 7.43239 31.5732 7.30195 31.708C7.17152 31.8429 6.99331 31.921 6.80578 31.9256C6.42168 31.9181 6.17369 31.66 6.17285 31.2634Z" fill="white"/>
<path d="M6.17286 33.9245C6.17286 33.507 6.46845 33.1938 6.85506 33.2038C7.02873 33.2091 7.19353 33.2817 7.3145 33.4064C7.43548 33.5312 7.5031 33.6981 7.50302 33.8718C7.50326 34.0593 7.42975 34.2394 7.29836 34.3731C7.16697 34.5069 6.98824 34.5835 6.80078 34.5866C6.41668 34.5816 6.17119 34.3228 6.17286 33.9245Z" fill="white"/>
<path d="M34.1782 6.06301C34.1782 5.63716 34.4655 5.32905 34.8562 5.33656C35.0305 5.34092 35.1961 5.41322 35.3178 5.53802C35.4395 5.66283 35.5076 5.83025 35.5075 6.00456C35.5075 6.392 35.1735 6.74271 34.8095 6.73436C34.4321 6.72601 34.1782 6.45546 34.1782 6.06301Z" fill="white"/>
<path d="M34.1782 8.69565C34.1924 8.29151 34.473 8.00093 34.8462 8.00343C34.936 8.00456 35.0246 8.02377 35.1068 8.0599C35.1889 8.09604 35.263 8.14837 35.3245 8.21376C35.386 8.27915 35.4336 8.35626 35.4647 8.44049C35.4957 8.52473 35.5094 8.61435 35.505 8.704C35.4858 9.07725 35.1619 9.40373 34.8145 9.40039C34.4262 9.39705 34.1649 9.10898 34.1782 8.69565Z" fill="white"/>
<path d="M34.1782 11.3644C34.1915 10.9594 34.4713 10.6688 34.8462 10.6697C34.9361 10.6705 35.0249 10.6894 35.1073 10.7253C35.1897 10.7613 35.264 10.8135 35.3257 10.8788C35.3875 10.9442 35.4354 11.0213 35.4666 11.1056C35.4979 11.1899 35.5118 11.2796 35.5075 11.3694C35.4891 11.7418 35.1668 12.0691 34.8194 12.0675C34.4278 12.065 34.1656 11.7736 34.1782 11.3644Z" fill="white"/>
<path d="M15.784 19.9976C16.5046 20.719 17.2035 21.3904 17.864 22.1009C18.031 22.2788 18.1613 22.602 18.127 22.8282C18.0435 23.3735 17.3972 23.4921 16.958 23.0637C16.2257 22.3439 15.5043 21.6125 14.7787 20.8869C13.9437 20.0519 13.9437 19.9475 14.7703 19.1208C15.4968 18.3952 16.2199 17.6662 16.9497 16.944C17.2995 16.5991 17.6903 16.5791 17.9759 16.873C18.2615 17.1669 18.2264 17.5452 17.879 17.9C17.2035 18.5898 16.513 19.2728 15.784 19.9976Z" fill="white"/>
<path d="M25.9178 20.0099C25.1838 19.2785 24.4857 18.6054 23.8186 17.9032C23.6632 17.7362 23.518 17.4615 23.5438 17.2577C23.5697 17.054 23.7893 16.7843 23.9764 16.7334C24.0994 16.7113 24.2258 16.7161 24.3469 16.7473C24.4679 16.7786 24.5808 16.8356 24.6778 16.9146C25.4009 17.5826 26.0839 18.2948 26.7803 18.9912C27.7748 19.9849 27.7748 20.0141 26.7928 20.9952C26.1065 21.6816 25.4218 22.3721 24.7304 23.0543C24.4022 23.3783 24.0624 23.4159 23.7651 23.1838C23.4311 22.9191 23.4194 22.4857 23.7693 22.1333C24.4632 21.4361 25.1696 20.7489 25.9178 20.0099Z" fill="white"/>
<path d="M22.1724 17.3848C22.1615 17.4341 22.1431 17.5285 22.1198 17.622C21.7006 19.3015 21.2803 20.9801 20.8589 22.6579C20.7303 23.1689 20.4147 23.4094 20.0239 23.3134C19.6064 23.2115 19.4461 22.8558 19.5797 22.3164C19.9994 20.6241 20.4216 18.9321 20.8464 17.2404C20.9491 16.8337 21.2472 16.6233 21.5979 16.6743C21.9244 16.7218 22.1682 17.0032 22.1724 17.3848Z" fill="white"/>
<path d="M20.8258 3.99959C20.2004 3.99959 19.5733 4.0046 18.9512 3.99959C18.4686 3.99458 18.168 3.7232 18.178 3.31906C18.188 2.92911 18.4777 2.67193 18.9412 2.67026C20.2043 2.66525 21.4679 2.66525 22.7321 2.67026C23.2156 2.67026 23.5153 2.94581 23.5053 3.35079C23.4953 3.7399 23.2055 3.99458 22.7421 3.99959C22.1033 4.00794 21.462 3.99959 20.8258 3.99959Z" fill="white"/>
</g>
<defs>
<clipPath id="clip0_421_27172">
<rect width="40.0084" height="40" fill="white" transform="translate(0.837402)"/>
</clipPath>
</defs>
</svg>
