<svg width="40" height="40" viewBox="0 0 40 40" fill="none" xmlns="http://www.w3.org/2000/svg">
<g clip-path="url(#clip0_421_27215)">
<path d="M39.9968 29.8419C39.8833 30.155 39.8003 30.4876 39.65 30.7812C39.207 31.657 38.4799 32.19 37.4976 32.4389V33.9879C37.4976 34.9272 37.503 35.8665 37.4976 36.7995C37.4843 38.6279 36.1372 39.9883 34.3135 39.9914C30.187 39.9992 26.0605 39.9992 21.934 39.9914C20.111 39.9914 18.753 38.6256 18.7523 36.7987C18.7476 28.5201 18.7476 20.2411 18.7523 11.9615C18.7523 10.0916 20.1087 8.75235 21.9911 8.74765C26.0785 8.74348 30.1658 8.74348 34.2532 8.74765C36.1536 8.74765 37.496 10.0924 37.4976 11.9967C37.5012 18.1927 37.5012 24.389 37.4976 30.5855V31.0551C38.094 30.9987 38.6677 30.2974 38.7382 29.5515C38.7507 29.4224 38.7468 29.2916 38.7468 29.1601C38.7468 20.556 38.7468 11.9516 38.7468 3.3469C38.7444 1.99593 38.0008 1.25235 36.646 1.25235H8.12451V0H37.341C37.4248 0.0281778 37.5069 0.061052 37.5923 0.0837508C38.5949 0.346744 39.3142 0.94474 39.7385 1.89261C39.8375 2.14242 39.9238 2.39714 39.9968 2.65576V29.8419ZM20.0148 34.9703H36.217V13.141H33.0736C33.0368 13.2686 33.0055 13.3813 32.9719 13.4933C32.6463 14.5789 32.0835 14.9984 30.9533 14.9984C29.0012 14.9984 27.0491 14.993 25.097 14.9984C24.3002 15.0023 23.7624 14.629 23.4384 13.9269C23.321 13.6725 23.2466 13.3986 23.1566 13.1442H20.0148V34.9703ZM36.2335 11.8738C36.1943 10.7538 35.4007 10.0023 34.2939 10.0008C31.1834 9.99661 28.0726 9.99661 24.9616 10.0008C23.9198 10.0008 22.8787 9.98904 21.8369 10.0055C20.7951 10.0219 19.9678 10.8907 20.0367 11.8754H20.4586C21.5129 11.8754 22.5672 11.8754 23.6215 11.8754C24.1225 11.8754 24.3299 12.0773 24.3784 12.5665C24.3947 12.7607 24.4261 12.9533 24.4724 13.1426C24.6007 13.6334 24.7596 13.7484 25.2715 13.7484C27.1853 13.7484 29.0982 13.7398 31.012 13.7563C31.4237 13.7602 31.6491 13.595 31.7477 13.2185C31.7976 13.0436 31.8355 12.8655 31.8612 12.6855C31.9395 12.0022 32.0827 11.8746 32.7793 11.8746L36.2335 11.8738ZM20.0163 36.2664C19.8121 37.954 20.8711 38.7884 22.3081 38.7711C26.2483 38.7132 30.1901 38.7516 34.1311 38.7508C35.6276 38.7508 36.4299 37.7998 36.2069 36.2704L20.0163 36.2664Z" fill="white"/>
<path d="M4.37461 0V1.25235C3.94803 1.25235 3.54884 1.24765 3.14966 1.25235C2.05855 1.26644 1.25235 2.06481 1.25235 3.16218C1.24817 10.765 1.24817 18.368 1.25235 25.9714C1.25235 26.0496 1.25861 26.1232 1.26409 26.2414H17.4789V27.4836H1.27661C1.27661 28.2491 1.20852 28.9801 1.29383 29.694C1.40733 30.6465 2.21744 31.2461 3.23889 31.2469C7.82196 31.2469 12.4048 31.2469 16.9873 31.2469H17.4742V32.4883H13.6193C13.5144 32.9094 13.4142 33.307 13.3062 33.7367H17.464V34.9969H17.0632C15.6833 34.9969 14.3026 35.0274 12.9235 34.9867C11.8926 34.9562 11.7901 35.3968 11.9145 36.2343H17.4718V37.4789C17.3521 37.4843 17.2268 37.4953 17.1016 37.4953C15.2272 37.4953 13.3524 37.4953 11.477 37.4953C10.832 37.4953 10.6301 37.2965 10.6277 36.6656C10.6277 36.3134 10.6199 35.9612 10.6277 35.6105C10.6497 34.856 10.9917 34.276 11.6727 33.9566C11.9521 33.8259 12.0531 33.6436 12.1094 33.3845C12.1681 33.1058 12.2409 32.8303 12.3215 32.4961H11.884C9.03334 32.4961 6.18216 32.4961 3.33046 32.4961C1.32358 32.4961 0 31.1764 0 29.1742C0 20.5941 0 12.0145 0 3.43535C0 1.59674 0.821854 0.524421 2.59471 0.0446149C2.61741 0.0383532 2.63541 0.0156544 2.65654 0H4.37461Z" fill="white"/>
<path d="M6.87442 0V1.22339H5.62207V0H6.87442Z" fill="white"/>
<path d="M8.12539 15.9801C7.82795 15.8533 7.55792 15.7241 7.2777 15.6263C7.22763 15.6134 7.17538 15.6114 7.12447 15.6205C7.07357 15.6295 7.0252 15.6494 6.98262 15.6787C6.80181 15.8251 6.65231 16.0098 6.47777 16.1663C6.18268 16.4301 5.85159 16.4395 5.57216 16.1663C4.98356 15.596 4.40461 15.0165 3.83531 14.4279C3.56293 14.1469 3.53005 13.754 3.84314 13.5341C4.49045 13.0801 4.4247 12.5768 4.08265 11.9999C4.06308 11.9679 4.04899 11.9318 4.02082 11.8739C3.75704 11.8739 3.48466 11.8794 3.21227 11.8739C2.74734 11.8622 2.50782 11.6391 2.50782 11.1773C2.5 10.3946 2.5 9.61344 2.50782 8.83385C2.51174 8.36892 2.74264 8.1388 3.20288 8.12941C3.47526 8.12158 3.75078 8.12941 4.02238 8.12941C4.1484 7.82728 4.28381 7.54315 4.38321 7.25041C4.39085 7.19368 4.38536 7.13595 4.36718 7.08167C4.349 7.02739 4.3186 6.97801 4.27833 6.93733C3.23653 6.00198 3.59424 5.78595 4.31981 5.07994C4.72057 4.68858 5.10958 4.28626 5.50955 3.8949C5.85864 3.55364 6.23278 3.51294 6.51925 3.88786C6.91452 4.40445 7.31919 4.48899 7.84987 4.14381C7.93985 4.09722 8.03391 4.05897 8.13087 4.02953C8.13087 3.75245 8.12382 3.46754 8.13087 3.18341C8.14026 2.73961 8.37038 2.5048 8.81027 2.5048C9.60446 2.49645 10.3987 2.49645 11.1929 2.5048C11.6296 2.50949 11.8543 2.74822 11.8738 3.18733C11.8738 3.20063 11.8738 3.21394 11.8738 3.22646C11.8973 4.0945 11.8965 4.09763 12.7348 4.38019C12.8131 4.40602 12.9164 4.36688 13.0025 4.33949C13.0463 4.3254 13.0808 4.26983 13.1144 4.23304C13.9629 3.40023 14.0012 3.40101 14.856 4.25495C15.27 4.66979 15.6872 5.08072 16.0966 5.49947C16.4519 5.86266 16.448 6.182 16.0966 6.54988C15.4892 7.19093 15.4837 7.19406 15.9142 7.97599C15.9588 8.05426 16.1115 8.1161 16.2163 8.12001C17.4922 8.16541 17.493 8.16228 17.493 9.42793C17.493 10.0009 17.4976 10.5738 17.493 11.1499C17.4875 11.6383 17.2581 11.8669 16.7775 11.8778C16.5177 11.8833 16.2578 11.8778 15.98 11.8778C15.8508 12.1776 15.7138 12.4688 15.6043 12.7701C15.5982 12.816 15.6021 12.8627 15.6156 12.907C15.6291 12.9513 15.6519 12.9922 15.6825 13.0269C15.8156 13.1834 15.976 13.322 16.1185 13.4738C16.4371 13.8119 16.4504 14.143 16.1334 14.4671C15.5792 15.0353 15.0177 15.5968 14.449 16.1515C14.1492 16.4434 13.7586 16.4826 13.5261 16.1562C13.0816 15.53 12.5963 15.5605 12.0257 15.912C11.9748 15.9388 11.9226 15.9629 11.8691 15.984C11.8691 16.2712 11.8785 16.5577 11.8691 16.845C11.8527 17.259 11.6202 17.4962 11.203 17.5017C10.3958 17.5116 9.58855 17.5116 8.78131 17.5017C8.36803 17.4962 8.13948 17.2535 8.12461 16.8364C8.11756 16.5444 8.12539 16.2587 8.12539 15.9801ZM9.3746 3.75714C9.3746 3.96848 9.3746 4.1485 9.3746 4.32775C9.3746 4.86156 9.24937 4.99384 8.74843 5.16995C8.28541 5.33626 7.83227 5.52886 7.3912 5.74681C7.05228 5.91197 6.76502 5.90336 6.50986 5.62236C6.36192 5.46034 6.23043 5.28344 6.10598 5.1316L5.16045 6.07712C5.28647 6.19296 5.43284 6.31898 5.56825 6.45596C5.92673 6.81679 5.93143 7.00386 5.70914 7.46096C5.50141 7.89375 5.31848 8.33801 5.16124 8.79158C5.00469 9.23304 4.84815 9.37236 4.36834 9.37706C4.1664 9.37706 3.96524 9.37706 3.77113 9.37706V10.6294C4.00595 10.6294 4.22824 10.6294 4.44662 10.6294C4.8098 10.6231 5.01565 10.8086 5.14245 11.1397C5.33578 11.6477 5.54242 12.1502 5.76862 12.6449C5.90873 12.958 5.90012 13.2272 5.65122 13.4636C5.48293 13.6202 5.2943 13.7611 5.10958 13.9121L6.06919 14.8725C6.23043 14.6941 6.38228 14.5172 6.54352 14.3512C6.78538 14.1055 7.05385 14.0984 7.36302 14.2385C7.8577 14.4632 8.36099 14.6698 8.86897 14.8647C9.20084 14.9907 9.38243 15.2005 9.37617 15.5621C9.37617 15.7891 9.37617 16.0168 9.37617 16.2337H10.6285C10.6285 15.9934 10.6285 15.775 10.6285 15.5566C10.623 15.1934 10.8101 14.9891 11.1412 14.8631C11.6484 14.6698 12.1517 14.4624 12.6464 14.237C12.9595 14.0961 13.2279 14.107 13.4635 14.3567C13.6201 14.525 13.7602 14.7144 13.887 14.8686C14.2392 14.5187 14.5218 14.2424 14.8646 13.898C14.7237 13.783 14.5593 13.657 14.4051 13.5192C14.0975 13.2437 14.0873 12.9423 14.2744 12.5745C14.4929 12.1337 14.6827 11.6793 14.8427 11.2141C14.9992 10.7734 15.1558 10.6357 15.6371 10.631C15.8383 10.631 16.0394 10.631 16.232 10.631V9.37862C15.9917 9.37862 15.7733 9.37862 15.5549 9.37862C15.1933 9.38332 14.9867 9.1986 14.8607 8.86673C14.6681 8.35848 14.4594 7.85676 14.2345 7.36156C14.0944 7.04847 14.103 6.78 14.3535 6.54362C14.5225 6.38708 14.7104 6.2454 14.8732 6.11078L13.8987 5.11829C13.7877 5.27417 13.6683 5.4239 13.541 5.56679C13.1833 5.92919 12.9931 5.93075 12.5376 5.70924C12.1064 5.50098 11.6634 5.31804 11.2109 5.16134C10.7686 5.0048 10.6285 4.84825 10.6238 4.37001C10.6238 4.16885 10.6238 3.96691 10.6238 3.75871L9.3746 3.75714Z" fill="white"/>
<path d="M12.0076 20.4821C12.1688 20.616 12.3567 20.7545 12.5249 20.9149C12.7738 21.1498 12.7809 21.4237 12.6408 21.7337C12.4169 22.2284 12.2082 22.7301 12.0146 23.2388C11.8878 23.5707 11.6796 23.7539 11.318 23.7484C11.0996 23.7484 10.8812 23.7484 10.6355 23.7484V25.5948H9.38311C9.38311 24.7464 9.36276 23.8916 9.39329 23.0392C9.40581 22.7019 9.66411 22.5156 10.0077 22.5031C10.3059 22.4929 10.6041 22.5031 10.893 22.5031C10.9211 22.4436 10.9352 22.4068 10.9548 22.3739C11.2992 21.7971 11.361 21.2953 10.7153 20.8414C10.4022 20.6206 10.4351 20.2285 10.7075 19.9483C11.2778 19.3576 11.857 18.7768 12.4451 18.206C12.7245 17.9336 13.1175 17.8999 13.3382 18.213C13.7922 18.8595 14.2947 18.7946 14.8715 18.4533C14.9044 18.4337 14.9404 18.4204 14.9999 18.3915C14.9999 18.1026 14.9889 17.8036 14.9999 17.5062C15.0171 17.1321 15.2441 16.8871 15.6128 16.88C16.4307 16.866 17.2494 16.88 18.094 16.88V18.1128H16.2483C16.2483 18.368 16.2483 18.5958 16.2483 18.8227C16.253 19.1844 16.0699 19.3933 15.738 19.5194C15.2308 19.713 14.7291 19.9217 14.2328 20.1455C13.9197 20.2856 13.6513 20.2786 13.4149 20.0289C13.2583 19.8606 13.1159 19.6728 12.9805 19.5084L12.0076 20.4821Z" fill="white"/>
<path d="M34.3551 2.52661V3.72965H26.2798V2.52661H34.3551Z" fill="white"/>
<path d="M16.8568 21.2632V22.3434C16.3919 22.5954 15.8995 22.7496 15.5724 23.0713C15.2452 23.393 15.1027 23.8712 14.8405 24.3542H13.7893C13.6195 22.8067 15.1458 21.2546 16.8568 21.2632Z" fill="white"/>
<path d="M5.01709 29.9703V28.7681H8.71778V29.9703H5.01709Z" fill="white"/>
<path d="M35.6436 2.51733H36.845V3.72585H35.6436V2.51733Z" fill="white"/>
<path d="M3.73068 29.9782H2.52686V28.7712H3.73068V29.9782Z" fill="white"/>
<path d="M34.9967 24.3512C35.0186 28.1137 31.93 31.2344 28.1722 31.2469C24.3815 31.2602 21.2686 28.2053 21.2498 24.4521C21.2361 23.5451 21.4021 22.6443 21.7382 21.8017C22.0743 20.9591 22.5739 20.1913 23.2081 19.5427C23.8423 18.8941 24.5987 18.3775 25.4335 18.0225C26.2684 17.6676 27.1652 17.4815 28.0724 17.4748C28.9795 17.4681 29.879 17.6411 30.719 17.9837C31.5589 18.3263 32.3228 18.8318 32.9665 19.471C33.6101 20.1103 34.1209 20.8706 34.4694 21.7082C34.8178 22.5457 34.997 23.444 34.9967 24.3512ZM22.499 24.3512C22.4984 25.0897 22.6432 25.8211 22.9252 26.5037C23.2072 27.1863 23.6209 27.8066 24.1426 28.3293C24.6644 28.852 25.2839 29.2668 25.966 29.55C26.6481 29.8333 27.3792 29.9794 28.1178 29.9801C28.8563 29.9807 29.5877 29.8359 30.2703 29.5539C30.9529 29.2719 31.5732 28.8582 32.0959 28.3365C32.6186 27.8147 33.0334 27.1952 33.3166 26.5131C33.5999 25.831 33.746 25.0999 33.7467 24.3613C33.7467 21.2986 31.2263 18.7618 28.1667 18.7524C25.0468 18.7391 22.5014 21.2508 22.499 24.348V24.3512Z" fill="white"/>
<path d="M25.6401 12.4719V11.2712H30.5908V12.4735L25.6401 12.4719Z" fill="white"/>
<path d="M25.6318 38.0997V36.9021H30.5958V38.0997H25.6318Z" fill="white"/>
<path d="M10.0189 6.87452C10.6365 6.87746 11.2394 7.06339 11.7515 7.40883C12.2635 7.75426 12.6617 8.24369 12.8957 8.8153C13.1297 9.38691 13.189 10.0151 13.0662 10.6204C12.9434 11.2257 12.644 11.781 12.2057 12.2163C11.7674 12.6515 11.21 12.947 10.6038 13.0656C9.99764 13.1842 9.36994 13.1204 8.79998 12.8824C8.23002 12.6444 7.74339 12.2428 7.40155 11.7284C7.05972 11.2139 6.87802 10.6097 6.8794 9.99209C6.88292 9.16254 7.21552 8.3683 7.80415 7.78378C8.39279 7.19926 9.18933 6.87223 10.0189 6.87452ZM8.13097 9.99209C8.12977 10.3617 8.23793 10.7233 8.44184 11.0316C8.64575 11.3398 8.93628 11.5808 9.27687 11.7243C9.61747 11.8678 9.99289 11.9073 10.3559 11.8379C10.7189 11.7684 11.0532 11.5932 11.3168 11.3341C11.5804 11.0751 11.7615 10.7438 11.8373 10.3821C11.913 10.0204 11.8801 9.64432 11.7426 9.30127C11.6051 8.95823 11.3692 8.66353 11.0645 8.45427C10.7599 8.24502 10.4002 8.13056 10.0306 8.12531C9.78282 8.122 9.53681 8.16775 9.30676 8.25994C9.07672 8.35213 8.86719 8.48893 8.69025 8.66245C8.51331 8.83597 8.37245 9.04279 8.27579 9.27099C8.17913 9.49919 8.12858 9.74426 8.12705 9.99209H8.13097Z" fill="white"/>
<path d="M26.8472 23.4964C26.9944 23.3579 27.0985 23.2616 27.1971 23.1654C28.1546 22.2099 29.1114 21.254 30.0673 20.2975C30.4728 19.8944 30.7718 19.8905 31.171 20.2857C31.7361 20.842 32.297 21.4029 32.8538 21.9686C33.2201 22.3412 33.2272 22.6519 32.864 23.0166C31.0444 24.8398 29.223 26.6607 27.3998 28.4792C27.0304 28.8479 26.7197 28.8479 26.3533 28.4847C25.3562 27.4933 24.3632 26.4997 23.3743 25.5041C23.0268 25.1535 23.0307 24.8412 23.379 24.4866C23.953 23.9022 24.5322 23.3229 25.1167 22.7489C25.4697 22.403 25.778 22.4069 26.1342 22.7536C26.3776 22.9869 26.5991 23.2374 26.8472 23.4964ZM24.7425 24.9445L26.8911 27.086L31.4606 22.518L30.5722 21.5592C29.55 22.5799 28.5225 23.6076 27.4899 24.6423C27.0022 25.1292 26.7408 25.1268 26.2477 24.6314C26.0481 24.431 25.8563 24.2228 25.6536 24.0115L24.7425 24.9445Z" fill="white"/>
</g>
<defs>
<clipPath id="clip0_421_27215">
<rect width="39.9969" height="40" fill="white"/>
</clipPath>
</defs>
</svg>
