<svg width="1125" height="399" viewBox="0 0 1125 399" fill="none" xmlns="http://www.w3.org/2000/svg">
<g clip-path="url(#clip0_14_21)">
<g clip-path="url(#clip1_14_21)">
<path fill-rule="evenodd" clip-rule="evenodd" d="M82.2595 61.6387L147.066 130.457V267.125H13.8374V130.457L82.2595 61.6387Z" fill="white"/>
<path d="M147.46 267.519H13.4438V130.293L13.5568 130.176L82.2633 61.0688L82.5438 61.3655L147.46 130.297V267.519ZM14.2308 266.727H146.669V130.613L82.2516 62.2088L14.2308 130.617V266.727Z" fill="white"/>
<path fill-rule="evenodd" clip-rule="evenodd" d="M288.285 0L156.735 130.457V268.093L220.576 203.152V67.1551L288.285 131.425V268.097L356.337 202.184V66.4836L288.285 0Z" fill="white"/>
</g>
<g clip-path="url(#clip2_14_21)">
<path d="M479.325 64.7641C476.84 66.7951 473.604 68.4986 469.615 69.8744C465.626 71.2503 461.605 71.9382 457.551 71.9382C451.47 71.9382 445.814 70.5296 440.583 67.7123C435.352 64.8951 431.151 60.833 427.98 55.5261C424.808 50.2192 423.223 43.995 423.223 36.8536C423.223 30.1708 424.678 24.176 427.587 18.869C430.497 13.5621 434.649 9.41814 440.044 6.43709C445.438 3.45605 451.732 1.96552 458.924 1.96552C466.575 1.96552 473.375 3.63622 479.325 6.97762V17.8863C477.298 14.2828 474.356 11.4164 470.498 9.2871C466.64 7.15779 462.521 6.09313 458.14 6.09313C452.582 6.09313 447.759 7.40348 443.673 10.0242C439.586 12.6449 436.464 16.232 434.306 20.7854C432.148 25.3389 431.069 30.4329 431.069 36.0674C431.069 42.4226 432.295 47.9588 434.747 52.6761C437.199 57.3933 440.518 61.0132 444.702 63.5356C448.887 66.058 453.562 67.3192 458.728 67.3192C467.032 67.3192 473.898 64.8951 479.325 60.0468V64.7641ZM514.046 36.7553C517.054 36.7553 519.669 36.051 521.892 34.6424C524.115 33.2338 525.799 31.3993 526.944 29.1389C528.088 26.8786 528.66 24.5035 528.66 22.0139C528.66 19.4587 528.12 17.0509 527.042 14.7906C525.963 12.5302 524.312 10.6794 522.088 9.23797C519.865 7.79658 517.152 7.07589 513.948 7.07589H505.611V61.7175C505.611 64.3382 505.938 66.3201 506.592 67.6632C507.246 69.0063 507.965 69.8908 508.749 70.3167C509.534 70.7425 509.926 70.8899 509.926 70.7589H494.332C494.332 70.8899 494.724 70.7262 495.508 70.2675C496.293 69.8089 496.996 68.9244 497.617 67.6141C498.238 66.3037 498.549 64.3382 498.549 61.7175V12.5794C498.549 9.89314 498.238 7.84572 497.617 6.43709C496.996 5.02847 496.293 4.07846 495.508 3.58708C494.724 3.0957 494.332 2.94829 494.332 3.14484H513.752C518.852 3.14484 523.053 3.98019 526.355 5.65088C529.657 7.32158 532.044 9.48366 533.515 12.1371C534.986 14.7906 535.722 17.6897 535.722 20.8346C535.722 23.4553 535.101 26.0268 533.858 28.5493C532.616 31.0717 530.834 33.2665 528.513 35.1338C526.192 37.001 523.494 38.295 520.421 39.0157L518.852 39.3105L536.114 61.3244C538.403 63.8796 540.299 65.8451 541.803 67.221C543.307 68.5968 544.402 69.5141 545.089 69.9727C545.775 70.4313 546.184 70.6934 546.315 70.7589H534.839L508.161 36.7553H514.046ZM592.118 70.7589H555.142C555.142 70.9555 555.534 70.8081 556.319 70.3167C557.103 69.8253 557.806 68.8425 558.428 67.3684C559.049 65.8942 559.359 63.7485 559.359 60.9313V12.6776C559.359 9.99142 559.049 7.944 558.428 6.53537C557.806 5.12675 557.103 4.16036 556.319 3.63622C555.534 3.11208 555.142 2.94829 555.142 3.14484H590.647V12.9725C589.47 9.04141 585.939 7.07589 580.054 7.07589H566.421V34.9863H583.291C584.599 34.9863 585.71 34.7734 586.626 34.3476C587.541 33.9217 588.228 33.4794 588.686 33.0208C589.143 32.5622 589.405 32.2674 589.47 32.1363V41.6691C589.405 41.5381 589.143 41.2433 588.686 40.7846C588.228 40.326 587.558 39.9002 586.675 39.5071C585.792 39.114 584.697 38.9174 583.389 38.9174H566.421V66.8279H581.722C584.664 66.8279 587.198 66.2218 589.323 65.0098C591.448 63.7977 592.968 62.2416 593.884 60.3416L592.118 70.7589ZM643.709 44.5191H619.287L613.01 60.1451C612.029 62.5692 611.538 64.5675 611.538 66.1399C611.538 68.302 612.519 69.8417 614.481 70.7589H600.455C601.109 70.7589 602.057 70.1037 603.3 68.7934C604.542 67.483 605.981 64.8951 607.615 61.0296L633.214 0L658.617 61.3244C660.056 64.8623 661.445 67.2865 662.786 68.5968C664.126 69.9072 665.189 70.6279 665.974 70.7589H649.692C651.327 69.9727 652.144 68.7606 652.144 67.1227C652.144 65.7468 651.621 63.7813 650.575 61.2261L643.709 44.5191ZM620.954 40.4898H642.14L631.449 14.2501L620.954 40.4898ZM675.88 7.07589C673.003 7.07589 670.616 7.63279 668.72 8.74659C666.824 9.86038 665.45 11.269 664.6 12.9725L665.974 3.14484H712.464L713.837 12.9725C712.987 11.269 711.614 9.86038 709.718 8.74659C707.822 7.63279 705.435 7.07589 702.558 7.07589H692.75V61.6192C692.75 64.2399 693.077 66.2382 693.731 67.6141C694.384 68.9899 695.104 69.9072 695.888 70.3658C696.673 70.8244 697.065 70.9555 697.065 70.7589H681.47C681.47 70.9555 681.863 70.8244 682.647 70.3658C683.432 69.9072 684.135 69.0063 684.756 67.6632C685.377 66.3201 685.688 64.3054 685.688 61.6192V7.07589H675.88ZM723.743 70.7589C723.743 70.9555 724.136 70.8081 724.92 70.3167C725.705 69.8253 726.424 68.908 727.078 67.5649C727.732 66.2218 728.059 64.2399 728.059 61.6192V12.2845C728.059 9.66383 727.748 7.68193 727.127 6.33882C726.506 4.99571 725.803 4.09484 725.018 3.63622C724.234 3.1776 723.841 3.0138 723.841 3.14484H739.436C739.436 3.0138 739.044 3.1776 738.259 3.63622C737.475 4.09484 736.755 4.99571 736.102 6.33882C735.448 7.68193 735.121 9.66383 735.121 12.2845V61.6192C735.121 64.2399 735.448 66.2218 736.102 67.5649C736.755 68.908 737.475 69.8089 738.259 70.2675C739.044 70.7262 739.436 70.8899 739.436 70.7589H723.743ZM798.481 8.35348C798.481 7.04313 798.122 5.91295 797.402 4.96295C796.683 4.01294 795.571 3.40691 794.068 3.14484H810.545C809.695 3.27587 808.551 4.02932 807.112 5.40519C805.674 6.78106 804.17 9.33625 802.601 13.0707L777.786 73.1175L752.579 12.7759C751.141 9.30348 749.719 6.89571 748.313 5.55261C746.907 4.2095 745.746 3.40691 744.831 3.14484H761.21C759.445 3.60346 758.562 4.75002 758.562 6.58451C758.562 7.56727 758.791 8.61555 759.249 9.72935C759.706 10.8431 759.968 11.4983 760.033 11.6949L779.061 58.3761L797.5 12.9725C798.154 11.4656 798.481 9.9259 798.481 8.35348ZM853.014 70.7589H816.038C816.038 70.9555 816.43 70.8081 817.215 70.3167C817.999 69.8253 818.702 68.8425 819.323 67.3684C819.945 65.8942 820.255 63.7485 820.255 60.9313V12.6776C820.255 9.99142 819.945 7.944 819.323 6.53537C818.702 5.12675 817.999 4.16036 817.215 3.63622C816.43 3.11208 816.038 2.94829 816.038 3.14484H851.543V12.9725C850.366 9.04141 846.835 7.07589 840.95 7.07589H827.317V34.9863H844.187C845.495 34.9863 846.606 34.7734 847.522 34.3476C848.437 33.9217 849.124 33.4794 849.582 33.0208C850.039 32.5622 850.301 32.2674 850.366 32.1363V41.6691C850.301 41.5381 850.039 41.2433 849.582 40.7846C849.124 40.326 848.454 39.9002 847.571 39.5071C846.688 39.114 845.593 38.9174 844.285 38.9174H827.317V66.8279H842.618C845.56 66.8279 848.094 66.2218 850.219 65.0098C852.344 63.7977 853.864 62.2416 854.78 60.3416L853.014 70.7589ZM465.496 119.701C465.496 123.501 464.597 126.891 462.798 129.872C461 132.853 458.434 135.195 455.099 136.899C451.764 138.602 447.841 139.454 443.329 139.454C440.583 139.454 437.641 139.159 434.502 138.57V159.994C434.502 162.549 434.829 164.498 435.483 165.841C436.137 167.184 436.856 168.085 437.641 168.544C438.425 169.002 438.818 169.166 438.818 169.035H423.223C423.223 169.166 423.615 169.002 424.4 168.544C425.184 168.085 425.887 167.201 426.508 165.89C427.13 164.58 427.44 162.614 427.44 159.994V110.757C427.44 108.137 427.13 106.138 426.508 104.763C425.887 103.387 425.184 102.453 424.4 101.962C423.615 101.47 423.223 101.29 423.223 101.421H442.447C445.781 101.421 448.528 101.634 450.685 102.06C452.843 102.486 454.739 103.125 456.374 103.976C459.317 105.483 461.572 107.662 463.142 110.512C464.711 113.362 465.496 116.425 465.496 119.701ZM457.943 120.978C457.943 116.326 456.505 112.559 453.628 109.676C450.751 106.794 446.926 105.352 442.152 105.352H434.502V134.737C437.314 135.261 440.256 135.523 443.329 135.523C447.906 135.523 451.486 134.196 454.069 131.543C456.652 128.889 457.943 125.368 457.943 120.978ZM496.685 135.032C499.693 135.032 502.309 134.327 504.532 132.919C506.755 131.51 508.439 129.676 509.583 127.415C510.727 125.155 511.3 122.78 511.3 120.29C511.3 117.735 510.76 115.327 509.681 113.067C508.602 110.806 506.951 108.956 504.728 107.514C502.505 106.073 499.791 105.352 496.587 105.352H488.25V159.994C488.25 162.614 488.577 164.596 489.231 165.939C489.885 167.283 490.604 168.167 491.389 168.593C492.174 169.019 492.566 169.166 492.566 169.035H476.971C476.971 169.166 477.363 169.002 478.148 168.544C478.933 168.085 479.636 167.201 480.257 165.89C480.878 164.58 481.189 162.614 481.189 159.994V110.856C481.189 108.169 480.878 106.122 480.257 104.713C479.636 103.305 478.933 102.355 478.148 101.863C477.363 101.372 476.971 101.225 476.971 101.421H496.391C501.491 101.421 505.693 102.256 508.995 103.927C512.297 105.598 514.683 107.76 516.155 110.413C517.626 113.067 518.361 115.966 518.361 119.111C518.361 121.732 517.74 124.303 516.498 126.826C515.255 129.348 513.474 131.543 511.152 133.41C508.831 135.277 506.134 136.571 503.061 137.292L501.491 137.587L518.754 159.601C521.042 162.156 522.939 164.121 524.442 165.497C525.946 166.873 527.042 167.79 527.728 168.249C528.415 168.708 528.823 168.97 528.954 169.035H517.479L490.801 135.032H496.685ZM534.937 136.014C534.937 129.07 536.425 122.878 539.4 117.44C542.375 112.002 546.56 107.776 551.954 104.763C557.349 101.749 563.577 100.242 570.639 100.242C576.524 100.242 582.032 101.536 587.165 104.124C592.298 106.712 596.418 110.594 599.524 115.769C602.629 120.945 604.182 127.169 604.182 134.442C604.182 141.387 602.695 147.578 599.72 153.016C596.745 158.454 592.56 162.68 587.165 165.694C581.771 168.708 575.543 170.214 568.481 170.214C562.596 170.214 557.087 168.921 551.954 166.333C546.821 163.745 542.702 159.863 539.596 154.687C536.49 149.511 534.937 143.287 534.937 136.014ZM596.336 135.916C596.336 129.954 595.11 124.565 592.658 119.75C590.206 114.934 586.838 111.167 582.556 108.448C578.273 105.729 573.45 104.369 568.089 104.369C563.184 104.369 558.82 105.614 554.995 108.104C551.17 110.594 548.178 114.115 546.02 118.669C543.862 123.222 542.784 128.513 542.784 134.54C542.784 140.502 544.01 145.891 546.462 150.707C548.914 155.522 552.281 159.289 556.564 162.008C560.847 164.727 565.669 166.087 571.031 166.087C575.935 166.087 580.3 164.842 584.125 162.352C587.95 159.863 590.941 156.341 593.099 151.788C595.257 147.234 596.336 141.944 596.336 135.916ZM659.5 119.701C659.5 123.501 658.601 126.891 656.803 129.872C655.005 132.853 652.438 135.195 649.104 136.899C645.769 138.602 641.846 139.454 637.334 139.454C634.588 139.454 631.645 139.159 628.507 138.57V159.994C628.507 162.549 628.833 164.498 629.487 165.841C630.141 167.184 630.86 168.085 631.645 168.544C632.43 169.002 632.822 169.166 632.822 169.035H617.227C617.227 169.166 617.62 169.002 618.404 168.544C619.189 168.085 619.892 167.201 620.513 165.89C621.134 164.58 621.445 162.614 621.445 159.994V110.757C621.445 108.137 621.134 106.138 620.513 104.763C619.892 103.387 619.189 102.453 618.404 101.962C617.62 101.47 617.227 101.29 617.227 101.421H636.451C639.786 101.421 642.532 101.634 644.69 102.06C646.848 102.486 648.744 103.125 650.379 103.976C653.321 105.483 655.577 107.662 657.146 110.512C658.716 113.362 659.5 116.425 659.5 119.701ZM651.948 120.978C651.948 116.326 650.509 112.559 647.632 109.676C644.755 106.794 640.93 105.352 636.157 105.352H628.507V134.737C631.318 135.261 634.261 135.523 637.334 135.523C641.911 135.523 645.491 134.196 648.074 131.543C650.657 128.889 651.948 125.368 651.948 120.978ZM707.952 169.035H670.976C670.976 169.232 671.368 169.084 672.153 168.593C672.937 168.102 673.64 167.119 674.261 165.645C674.883 164.171 675.193 162.025 675.193 159.208V110.954C675.193 108.268 674.883 106.22 674.261 104.812C673.64 103.403 672.937 102.437 672.153 101.912C671.368 101.388 670.976 101.225 670.976 101.421H706.481V111.249C705.304 107.318 701.773 105.352 695.888 105.352H682.255V133.263H699.125C700.433 133.263 701.544 133.05 702.46 132.624C703.375 132.198 704.062 131.756 704.519 131.297C704.977 130.838 705.239 130.544 705.304 130.413V139.945C705.239 139.814 704.977 139.52 704.519 139.061C704.062 138.602 703.392 138.176 702.509 137.783C701.626 137.39 700.531 137.194 699.223 137.194H682.255V165.104H697.556C700.498 165.104 703.032 164.498 705.157 163.286C707.282 162.074 708.802 160.518 709.718 158.618L707.952 169.035ZM742.477 135.032C745.485 135.032 748.1 134.327 750.323 132.919C752.547 131.51 754.23 129.676 755.375 127.415C756.519 125.155 757.091 122.78 757.091 120.29C757.091 117.735 756.552 115.327 755.473 113.067C754.394 110.806 752.743 108.956 750.52 107.514C748.296 106.073 745.583 105.352 742.379 105.352H734.042V159.994C734.042 162.614 734.369 164.596 735.023 165.939C735.677 167.283 736.396 168.167 737.18 168.593C737.965 169.019 738.357 169.166 738.357 169.035H722.763C722.763 169.166 723.155 169.002 723.94 168.544C724.724 168.085 725.427 167.201 726.048 165.89C726.669 164.58 726.98 162.614 726.98 159.994V110.856C726.98 108.169 726.669 106.122 726.048 104.713C725.427 103.305 724.724 102.355 723.94 101.863C723.155 101.372 722.763 101.225 722.763 101.421H742.183C747.283 101.421 751.484 102.256 754.786 103.927C758.088 105.598 760.475 107.76 761.946 110.413C763.417 113.067 764.153 115.966 764.153 119.111C764.153 121.732 763.532 124.303 762.289 126.826C761.047 129.348 759.265 131.543 756.944 133.41C754.623 135.277 751.925 136.571 748.852 137.292L747.283 137.587L764.545 159.601C766.834 162.156 768.73 164.121 770.234 165.497C771.738 166.873 772.833 167.79 773.52 168.249C774.206 168.708 774.615 168.97 774.746 169.035H763.27L736.592 135.032H742.477ZM788.183 105.352C785.306 105.352 782.919 105.909 781.023 107.023C779.127 108.137 777.753 109.545 776.903 111.249L778.276 101.421H824.767L826.14 111.249C825.29 109.545 823.917 108.137 822.021 107.023C820.124 105.909 817.738 105.352 814.861 105.352H805.053V159.895C805.053 162.516 805.38 164.514 806.033 165.89C806.687 167.266 807.407 168.183 808.191 168.642C808.976 169.101 809.368 169.232 809.368 169.035H793.773C793.773 169.232 794.166 169.101 794.95 168.642C795.735 168.183 796.438 167.283 797.059 165.939C797.68 164.596 797.991 162.582 797.991 159.895V105.352H788.183ZM872.827 101.421H887.245C886.591 101.552 885.545 102.273 884.106 103.583C882.668 104.894 880.935 107.318 878.908 110.856L861.94 140.044V159.895C861.94 163.237 862.397 165.563 863.313 166.873C864.228 168.183 865.078 168.904 865.863 169.035H850.955C851.739 168.904 852.589 168.2 853.505 166.922C854.42 165.645 854.878 163.302 854.878 159.895V139.945L838.106 110.757C836.144 107.35 834.444 105.008 833.006 103.731C831.567 102.453 830.423 101.683 829.573 101.421H846.051C844.416 101.749 843.599 102.797 843.599 104.566C843.599 105.156 843.795 105.86 844.187 106.679C844.579 107.498 845.201 108.661 846.051 110.168L860.272 135.228L874.494 110.561C875.606 108.726 876.161 106.859 876.161 104.959C876.161 103.714 875.786 102.846 875.034 102.355C874.282 101.863 873.546 101.552 872.827 101.421ZM495.999 267.311H480.796C481.581 267.18 482.431 266.476 483.346 265.199C484.262 263.921 484.72 261.546 484.72 258.073V208.935L459.022 268.393L432.933 209.034V257.582C432.933 261.12 433.505 263.593 434.649 265.002C435.793 266.411 436.823 267.18 437.739 267.311H423.223C424.203 267.18 425.282 266.443 426.459 265.1C427.636 263.757 428.225 261.251 428.225 257.582V208.346C428.225 205.201 427.669 203.039 426.557 201.859C425.446 200.68 424.334 199.959 423.223 199.697H436.464L460.494 254.634L484.131 199.697H495.999C495.149 199.828 494.233 200.516 493.253 201.761C492.272 203.006 491.781 205.299 491.781 208.641V258.467C491.781 261.742 492.272 264.003 493.253 265.248C494.233 266.493 495.149 267.18 495.999 267.311ZM547.884 241.072H523.462L517.184 256.698C516.204 259.122 515.713 261.12 515.713 262.692C515.713 264.855 516.694 266.394 518.656 267.311H504.63C505.284 267.311 506.232 266.656 507.474 265.346C508.717 264.036 510.155 261.448 511.79 257.582L537.389 196.553L562.792 257.877C564.231 261.415 565.62 263.839 566.961 265.149C568.301 266.46 569.364 267.18 570.148 267.311H553.867C555.501 266.525 556.319 265.313 556.319 263.675C556.319 262.299 555.796 260.334 554.75 257.779L547.884 241.072ZM525.129 237.042H546.315L535.624 210.803L525.129 237.042ZM627.918 199.697H641.747C640.832 199.894 639.933 200.631 639.05 201.909C638.168 203.186 637.726 205.43 637.726 208.641V270.063L587.509 211.392V258.467C587.509 261.611 588.064 263.823 589.176 265.1C590.288 266.378 591.366 267.115 592.413 267.311H578.583C579.499 267.115 580.43 266.378 581.379 265.1C582.327 263.823 582.801 261.579 582.801 258.368V209.23C582.801 207.003 582.049 204.972 580.545 203.137C579.041 201.303 577.145 200.156 574.856 199.697H587.018L633.018 253.455V208.641C633.018 203.596 631.318 200.615 627.918 199.697ZM693.829 241.072H669.406L663.129 256.698C662.148 259.122 661.658 261.12 661.658 262.692C661.658 264.855 662.639 266.394 664.6 267.311H650.575C651.229 267.311 652.177 266.656 653.419 265.346C654.662 264.036 656.1 261.448 657.735 257.582L683.334 196.553L708.737 257.877C710.175 261.415 711.565 263.839 712.905 265.149C714.246 266.46 715.308 267.18 716.093 267.311H699.812C701.446 266.525 702.264 265.313 702.264 263.675C702.264 262.299 701.74 260.334 700.694 257.779L693.829 241.072ZM671.074 237.042H692.259L681.568 210.803L671.074 237.042ZM757.287 268.393C751.075 268.393 745.321 267.082 740.025 264.461C734.728 261.841 730.478 257.91 727.274 252.668C724.07 247.427 722.468 241.039 722.468 233.504C722.468 226.822 723.989 220.827 727.029 215.52C730.07 210.213 734.352 206.053 739.878 203.039C745.403 200.025 751.762 198.518 758.954 198.518C763.532 198.518 767.667 199.042 771.362 200.09C775.056 201.139 777.982 202.285 780.14 203.53V214.439C778.113 210.901 775.089 208.051 771.068 205.889C767.046 203.727 762.943 202.646 758.758 202.646C752.939 202.646 747.888 203.874 743.605 206.331C739.322 208.788 736.036 212.277 733.748 216.797C731.459 221.318 730.315 226.625 730.315 232.718C730.315 239.335 731.639 245.003 734.287 249.72C736.935 254.437 740.45 257.975 744.831 260.334C749.212 262.692 753.985 263.872 759.151 263.872C761.505 263.872 763.94 263.593 766.458 263.036C768.975 262.48 771.313 261.677 773.471 260.629V244.413C773.471 242.382 773.144 240.793 772.49 239.647C771.836 238.5 771.117 237.681 770.332 237.19C769.547 236.698 769.155 236.518 769.155 236.649H784.848C784.848 236.518 784.456 236.649 783.671 237.042C782.886 237.435 782.167 238.173 781.513 239.254C780.859 240.335 780.532 241.858 780.532 243.823V261.71C777.067 263.872 773.323 265.526 769.302 266.673C765.281 267.819 761.276 268.393 757.287 268.393ZM835.262 267.311H798.285C798.285 267.508 798.677 267.361 799.462 266.869C800.247 266.378 800.95 265.395 801.571 263.921C802.192 262.447 802.503 260.301 802.503 257.484V209.23C802.503 206.544 802.192 204.497 801.571 203.088C800.95 201.679 800.247 200.713 799.462 200.189C798.677 199.665 798.285 199.501 798.285 199.697H833.79V209.525C832.613 205.594 829.083 203.628 823.198 203.628H809.564V231.539H826.434C827.742 231.539 828.854 231.326 829.769 230.9C830.685 230.474 831.371 230.032 831.829 229.573C832.287 229.115 832.548 228.82 832.613 228.689V238.222C832.548 238.091 832.287 237.796 831.829 237.337C831.371 236.879 830.701 236.453 829.818 236.06C828.935 235.667 827.84 235.47 826.532 235.47H809.564V263.38H824.865C827.807 263.38 830.341 262.774 832.466 261.562C834.591 260.35 836.112 258.794 837.027 256.894L835.262 267.311ZM922.063 267.311H906.861C907.646 267.18 908.496 266.476 909.411 265.199C910.326 263.921 910.784 261.546 910.784 258.073V208.935L885.087 268.393L858.997 209.034V257.582C858.997 261.12 859.569 263.593 860.714 265.002C861.858 266.411 862.888 267.18 863.803 267.311H849.287C850.268 267.18 851.347 266.443 852.524 265.1C853.701 263.757 854.289 261.251 854.289 257.582V208.346C854.289 205.201 853.734 203.039 852.622 201.859C851.51 200.68 850.399 199.959 849.287 199.697H862.528L886.558 254.634L910.196 199.697H922.063C921.213 199.828 920.298 200.516 919.317 201.761C918.336 203.006 917.846 205.299 917.846 208.641V258.467C917.846 261.742 918.336 264.003 919.317 265.248C920.298 266.493 921.213 267.18 922.063 267.311ZM974.145 267.311H937.168C937.168 267.508 937.56 267.361 938.345 266.869C939.13 266.378 939.833 265.395 940.454 263.921C941.075 262.447 941.385 260.301 941.385 257.484V209.23C941.385 206.544 941.075 204.497 940.454 203.088C939.833 201.679 939.13 200.713 938.345 200.189C937.56 199.665 937.168 199.501 937.168 199.697H972.673V209.525C971.496 205.594 967.965 203.628 962.081 203.628H948.447V231.539H965.317C966.625 231.539 967.737 231.326 968.652 230.9C969.567 230.474 970.254 230.032 970.712 229.573C971.169 229.115 971.431 228.82 971.496 228.689V238.222C971.431 238.091 971.169 237.796 970.712 237.337C970.254 236.879 969.584 236.453 968.701 236.06C967.818 235.667 966.723 235.47 965.415 235.47H948.447V263.38H963.748C966.69 263.38 969.224 262.774 971.349 261.562C973.474 260.35 974.995 258.794 975.91 256.894L974.145 267.311ZM1038.29 199.697H1052.12C1051.2 199.894 1050.3 200.631 1049.42 201.909C1048.54 203.186 1048.1 205.43 1048.1 208.641V270.063L997.88 211.392V258.467C997.88 261.611 998.436 263.823 999.548 265.1C1000.66 266.378 1001.74 267.115 1002.78 267.311H988.955C989.87 267.115 990.802 266.378 991.75 265.1C992.698 263.823 993.172 261.579 993.172 258.368V209.23C993.172 207.003 992.42 204.972 990.916 203.137C989.413 201.303 987.516 200.156 985.228 199.697H997.39L1043.39 253.455V208.641C1043.39 203.596 1041.69 200.615 1038.29 199.697ZM1073.6 203.628C1070.72 203.628 1068.34 204.185 1066.44 205.299C1064.54 206.413 1063.17 207.822 1062.32 209.525L1063.69 199.697H1110.18L1111.56 209.525C1110.71 207.822 1109.33 206.413 1107.44 205.299C1105.54 204.185 1103.15 203.628 1100.28 203.628H1090.47V258.172C1090.47 260.792 1090.8 262.791 1091.45 264.167C1092.1 265.542 1092.82 266.46 1093.61 266.918C1094.39 267.377 1094.78 267.508 1094.78 267.311H1079.19C1079.19 267.508 1079.58 267.377 1080.37 266.918C1081.15 266.46 1081.85 265.559 1082.48 264.216C1083.1 262.873 1083.41 260.858 1083.41 258.172V203.628H1073.6Z" fill="white"/>
</g>
<g clip-path="url(#clip3_14_21)">
<path d="M31.7464 382.312C30.3404 383.461 28.5089 384.426 26.2519 385.204C23.9948 385.983 21.7193 386.373 19.4253 386.373C15.9842 386.373 12.7837 385.575 9.82363 383.981C6.86359 382.386 4.48631 380.087 2.69179 377.083C0.897262 374.079 0 370.556 0 366.513C0 362.731 0.823261 359.337 2.46978 356.333C4.11631 353.329 6.46584 350.984 9.51838 349.296C12.5709 347.609 16.1322 346.765 20.2023 346.765C24.5313 346.765 28.3794 347.711 31.7464 349.602V355.777C30.5994 353.737 28.9344 352.115 26.7514 350.909C24.5683 349.704 22.2373 349.102 19.7583 349.102C16.6132 349.102 13.8844 349.843 11.5719 351.327C9.25937 352.81 7.4926 354.841 6.27158 357.418C5.05057 359.995 4.44006 362.879 4.44006 366.068C4.44006 369.666 5.13382 372.799 6.52134 375.469C7.90886 378.14 9.78663 380.189 12.1547 381.616C14.5227 383.044 17.1682 383.758 20.0913 383.758C24.7903 383.758 28.6754 382.386 31.7464 379.642V382.312ZM45.1776 370.073C45.7326 368.887 46.6484 367.746 47.9249 366.652C49.2014 365.558 50.4872 365.011 51.7822 365.011C52.5962 365.011 53.2067 365.123 53.6137 365.345V369.907C52.7997 368.905 51.6527 368.405 50.1727 368.405C48.6186 368.405 47.3976 369.081 46.5096 370.435C45.6216 371.789 45.1776 373.522 45.1776 375.636V380.142C45.1776 382.219 45.4181 383.647 45.8991 384.426C46.3801 385.204 46.8426 385.631 47.2866 385.705H39.461C39.905 385.631 40.3768 385.214 40.8763 384.453C41.3758 383.693 41.6256 382.256 41.6256 380.142V371.742C41.6256 370.185 41.3758 369.119 40.8763 368.544C40.3768 367.969 39.8125 367.681 39.1835 367.681L45.1776 365.011V370.073ZM68.4324 386.373C66.4344 386.373 64.7139 385.881 63.2708 384.898C61.8278 383.916 60.7271 382.636 59.9685 381.06C59.21 379.484 58.8308 377.806 58.8308 376.026C58.8308 373.726 59.284 371.742 60.1905 370.073C61.0971 368.405 62.2718 367.144 63.7148 366.291C65.1579 365.438 66.6564 365.011 68.2104 365.011C70.4304 365.011 72.3452 365.818 73.9547 367.431C75.5643 369.044 76.443 371.279 76.591 374.134H62.1608C62.1608 375.914 62.4938 377.481 63.1598 378.835C63.8259 380.189 64.7231 381.227 65.8516 381.95C66.9801 382.673 68.2104 383.035 69.5424 383.035C73.0205 383.035 75.37 381.922 76.591 379.697C76.258 381.7 75.3515 383.313 73.8715 384.537C72.3915 385.761 70.5784 386.373 68.4324 386.373ZM67.8219 366.847C66.3789 366.847 65.1394 367.357 64.1034 368.377C63.0673 369.397 62.4383 370.722 62.2163 372.354H72.3175C72.3175 370.648 71.8642 369.304 70.9577 368.321C70.0512 367.338 69.0059 366.847 67.8219 366.847ZM99.4018 386.373C98.2178 386.335 97.2188 386.02 96.4048 385.427C95.5908 384.834 95.1283 384.147 95.0173 383.369C94.3513 384.333 93.4725 385.075 92.381 385.594C91.2895 386.113 90.2072 386.373 89.1342 386.373C87.4322 386.373 86.0076 385.881 84.8606 384.898C83.7136 383.916 83.1401 382.627 83.1401 381.032C83.1401 376.916 86.9882 374.857 94.6843 374.857V374.246C94.6843 372.206 94.3883 370.704 93.7963 369.74C92.9822 368.368 91.6502 367.681 89.8002 367.681C88.3572 367.681 87.1639 368.108 86.2204 368.961C85.2769 369.814 84.8051 370.926 84.8051 372.299C84.5831 371.928 84.4074 371.594 84.2779 371.297C84.1484 371.001 84.0836 370.593 84.0836 370.073C84.0836 368.738 84.7126 367.561 85.9706 366.541C87.2287 365.521 88.8752 365.011 90.9102 365.011C93.7963 365.011 95.8498 365.975 97.0708 367.904C97.4778 368.497 97.7738 369.239 97.9588 370.129C98.1438 371.019 98.2363 372.187 98.2363 373.634V380.253C98.2363 381.403 98.5601 382.293 99.2076 382.924C99.8551 383.554 100.771 383.869 101.955 383.869H102.676L99.4018 386.373ZM94.6843 376.526C91.7242 376.526 89.7262 376.897 88.6902 377.639C87.6542 378.381 87.1362 379.382 87.1362 380.643C87.1362 381.681 87.4137 382.497 87.9687 383.09C88.5237 383.684 89.2637 383.981 90.1887 383.981C90.8917 383.981 91.5577 383.814 92.1867 383.48C92.8157 383.146 93.3523 382.683 93.7963 382.089C94.3883 381.31 94.6843 380.253 94.6843 378.918V376.526ZM114.276 386.373C112.463 386.373 111.094 385.751 110.169 384.509C109.244 383.267 108.781 381.774 108.781 380.031V367.681H105.673L112.333 360.116V365.456H119.438V367.681H112.333V379.419C112.333 380.828 112.704 381.894 113.444 382.618C114.184 383.341 115.035 383.702 115.997 383.702C116.737 383.702 117.458 383.48 118.161 383.035C118.864 382.59 119.438 381.978 119.882 381.199C119.327 384.648 117.458 386.373 114.276 386.373ZM127.319 371.742C127.319 370.185 127.069 369.119 126.569 368.544C126.07 367.969 125.506 367.681 124.877 367.681L130.871 365.011V380.142C130.871 381.774 131.037 382.998 131.37 383.814C131.703 384.63 132.073 385.177 132.48 385.455C132.887 385.733 133.091 385.816 133.091 385.705H125.099C125.099 385.816 125.302 385.733 125.709 385.455C126.116 385.177 126.486 384.63 126.819 383.814C127.152 382.998 127.319 381.774 127.319 380.142V371.742ZM129.039 358.28C128.225 358.28 127.587 358.011 127.124 357.474C126.662 356.936 126.431 356.315 126.431 355.61C126.431 354.905 126.662 354.284 127.124 353.747C127.587 353.209 128.225 352.94 129.039 352.94C129.853 352.94 130.491 353.209 130.954 353.747C131.417 354.284 131.648 354.905 131.648 355.61C131.648 356.315 131.417 356.936 130.954 357.474C130.491 358.011 129.853 358.28 129.039 358.28ZM155.569 369.517L148.076 386.373L140.528 369.295C140.047 368.219 139.557 367.394 139.057 366.819C138.558 366.244 138.123 365.864 137.753 365.679C137.383 365.493 137.198 365.419 137.198 365.456H145.578C145.504 365.456 145.338 365.503 145.079 365.595C144.82 365.688 144.57 365.874 144.33 366.152C144.089 366.43 143.969 366.828 143.969 367.348C143.969 367.978 144.154 368.683 144.524 369.462L148.908 379.53L153.016 370.018C153.275 369.35 153.404 368.664 153.404 367.96C153.404 367.292 153.265 366.736 152.988 366.291C152.71 365.846 152.257 365.568 151.628 365.456H159.01C159.01 365.419 158.815 365.493 158.427 365.679C158.038 365.864 157.594 366.263 157.095 366.875C156.595 367.487 156.087 368.368 155.569 369.517ZM172.663 386.373C170.665 386.373 168.944 385.881 167.501 384.898C166.058 383.916 164.957 382.636 164.199 381.06C163.44 379.484 163.061 377.806 163.061 376.026C163.061 373.726 163.514 371.742 164.421 370.073C165.327 368.405 166.502 367.144 167.945 366.291C169.388 365.438 170.887 365.011 172.441 365.011C174.661 365.011 176.576 365.818 178.185 367.431C179.795 369.044 180.673 371.279 180.821 374.134H166.391C166.391 375.914 166.724 377.481 167.39 378.835C168.056 380.189 168.954 381.227 170.082 381.95C171.211 382.673 172.441 383.035 173.773 383.035C177.251 383.035 179.6 381.922 180.821 379.697C180.488 381.7 179.582 383.313 178.102 384.537C176.622 385.761 174.809 386.373 172.663 386.373ZM172.052 366.847C170.609 366.847 169.37 367.357 168.334 368.377C167.298 369.397 166.669 370.722 166.447 372.354H176.548C176.548 370.648 176.095 369.304 175.188 368.321C174.282 367.338 173.236 366.847 172.052 366.847ZM229.218 357.78C229.218 359.931 228.709 361.85 227.692 363.537C226.674 365.225 225.222 366.55 223.335 367.515C221.448 368.479 219.228 368.961 216.675 368.961C215.121 368.961 213.456 368.794 211.68 368.46V380.587C211.68 382.034 211.865 383.137 212.235 383.897C212.605 384.657 213.012 385.167 213.456 385.427C213.9 385.686 214.122 385.779 214.122 385.705H205.297C205.297 385.779 205.519 385.686 205.963 385.427C206.407 385.167 206.805 384.667 207.157 383.925C207.508 383.183 207.684 382.071 207.684 380.587V352.717C207.684 351.234 207.508 350.103 207.157 349.324C206.805 348.545 206.407 348.017 205.963 347.739C205.519 347.461 205.297 347.359 205.297 347.433H216.175C218.062 347.433 219.616 347.553 220.837 347.794C222.058 348.035 223.131 348.397 224.056 348.879C225.722 349.732 226.998 350.965 227.886 352.578C228.774 354.192 229.218 355.925 229.218 357.78ZM224.944 358.503C224.944 355.87 224.13 353.737 222.502 352.105C220.874 350.474 218.71 349.658 216.009 349.658H211.68V366.291C213.271 366.587 214.936 366.736 216.675 366.736C219.265 366.736 221.291 365.985 222.752 364.483C224.214 362.981 224.944 360.987 224.944 358.503ZM240.651 370.073C241.206 368.887 242.122 367.746 243.398 366.652C244.675 365.558 245.961 365.011 247.256 365.011C248.07 365.011 248.68 365.123 249.087 365.345V369.907C248.273 368.905 247.126 368.405 245.646 368.405C244.092 368.405 242.871 369.081 241.983 370.435C241.095 371.789 240.651 373.522 240.651 375.636V380.142C240.651 382.219 240.892 383.647 241.373 384.426C241.854 385.204 242.316 385.631 242.76 385.705H234.935C235.379 385.631 235.85 385.214 236.35 384.453C236.849 383.693 237.099 382.256 237.099 380.142V371.742C237.099 370.185 236.849 369.119 236.35 368.544C235.85 367.969 235.286 367.681 234.657 367.681L240.651 365.011V370.073ZM254.304 376.193C254.304 374.264 254.776 372.438 255.72 370.713C256.663 368.989 257.967 367.607 259.632 366.569C261.297 365.53 263.148 365.011 265.183 365.011C267.144 365.011 268.92 365.466 270.511 366.374C272.102 367.283 273.35 368.516 274.257 370.073C275.163 371.631 275.617 373.337 275.617 375.191C275.617 377.12 275.145 378.946 274.201 380.671C273.258 382.395 271.954 383.777 270.289 384.815C268.624 385.853 266.774 386.373 264.739 386.373C262.778 386.373 261.001 385.918 259.41 385.01C257.819 384.101 256.571 382.868 255.664 381.31C254.758 379.753 254.304 378.047 254.304 376.193ZM271.621 376.804C271.621 375.247 271.325 373.708 270.733 372.187C270.141 370.667 269.308 369.424 268.235 368.46C267.162 367.496 265.923 367.014 264.517 367.014C262.556 367.014 261.029 367.756 259.938 369.239C258.846 370.722 258.3 372.503 258.3 374.579C258.3 376.137 258.596 377.676 259.188 379.197C259.78 380.717 260.613 381.959 261.686 382.924C262.759 383.888 263.999 384.37 265.405 384.37C267.366 384.37 268.892 383.628 269.983 382.145C271.075 380.661 271.621 378.881 271.621 376.804ZM287.494 393.048C287.494 394.68 287.66 395.904 287.993 396.719C288.326 397.535 288.696 398.082 289.103 398.36C289.51 398.639 289.714 398.722 289.714 398.611H281.722C281.722 398.722 281.925 398.639 282.332 398.36C282.739 398.082 283.109 397.526 283.442 396.692C283.775 395.857 283.942 394.643 283.942 393.048V371.742C283.942 370.185 283.692 369.119 283.193 368.544C282.693 367.969 282.129 367.681 281.5 367.681L287.494 365.011V368.627C287.938 367.885 288.743 367.097 289.908 366.263C291.074 365.428 292.6 365.011 294.487 365.011C296.115 365.011 297.576 365.419 298.872 366.235C300.167 367.051 301.184 368.182 301.924 369.628C302.664 371.075 303.034 372.688 303.034 374.468C303.034 376.73 302.572 378.733 301.647 380.476C300.722 382.219 299.519 383.61 298.039 384.648C296.374 385.798 294.561 386.373 292.6 386.373C291.305 386.373 290.232 386.196 289.381 385.844C288.53 385.492 287.901 385.167 287.494 384.871V393.048ZM299.038 376.137C299.038 373.801 298.492 371.77 297.401 370.046C296.309 368.321 294.727 367.459 292.655 367.459C291.878 367.459 291.083 367.672 290.269 368.099C289.455 368.525 288.789 369.109 288.271 369.851C287.753 370.593 287.494 371.427 287.494 372.354V378.918C287.494 380.105 287.633 381.069 287.91 381.811C288.188 382.553 288.622 383.109 289.214 383.48C290.139 384.073 291.268 384.37 292.6 384.37C294.45 384.37 295.985 383.619 297.206 382.117C298.427 380.615 299.038 378.622 299.038 376.137ZM318.741 386.373C316.743 386.373 315.022 385.881 313.579 384.898C312.136 383.916 311.035 382.636 310.277 381.06C309.518 379.484 309.139 377.806 309.139 376.026C309.139 373.726 309.592 371.742 310.499 370.073C311.405 368.405 312.58 367.144 314.023 366.291C315.466 365.438 316.965 365.011 318.519 365.011C320.739 365.011 322.654 365.818 324.263 367.431C325.873 369.044 326.751 371.279 326.899 374.134H312.469C312.469 375.914 312.802 377.481 313.468 378.835C314.134 380.189 315.031 381.227 316.16 381.95C317.288 382.673 318.519 383.035 319.851 383.035C323.329 383.035 325.678 381.922 326.899 379.697C326.566 381.7 325.66 383.313 324.18 384.537C322.7 385.761 320.887 386.373 318.741 386.373ZM318.13 366.847C316.687 366.847 315.448 367.357 314.412 368.377C313.376 369.397 312.747 370.722 312.525 372.354H322.626C322.626 370.648 322.173 369.304 321.266 368.321C320.36 367.338 319.314 366.847 318.13 366.847ZM338.777 370.073C339.332 368.887 340.247 367.746 341.524 366.652C342.8 365.558 344.086 365.011 345.381 365.011C346.195 365.011 346.806 365.123 347.213 365.345V369.907C346.399 368.905 345.252 368.405 343.772 368.405C342.218 368.405 340.997 369.081 340.109 370.435C339.221 371.789 338.777 373.522 338.777 375.636V380.142C338.777 382.219 339.017 383.647 339.498 384.426C339.979 385.204 340.442 385.631 340.886 385.705H333.06C333.504 385.631 333.976 385.214 334.475 384.453C334.975 383.693 335.224 382.256 335.224 380.142V371.742C335.224 370.185 334.975 369.119 334.475 368.544C333.976 367.969 333.411 367.681 332.782 367.681L338.777 365.011V370.073ZM360.144 386.373C358.331 386.373 356.962 385.751 356.037 384.509C355.112 383.267 354.65 381.774 354.65 380.031V367.681H351.542L358.202 360.116V365.456H365.306V367.681H358.202V379.419C358.202 380.828 358.572 381.894 359.312 382.618C360.052 383.341 360.903 383.702 361.865 383.702C362.605 383.702 363.326 383.48 364.029 383.035C364.732 382.59 365.306 381.978 365.75 381.199C365.195 384.648 363.326 386.373 360.144 386.373ZM378.127 385.538L378.737 384.036L372.243 369.295C371.614 367.885 371.013 366.912 370.44 366.374C369.866 365.836 369.413 365.53 369.08 365.456H377.183C376.85 365.53 376.517 365.697 376.184 365.957C375.851 366.217 375.685 366.68 375.685 367.348C375.685 367.978 375.87 368.683 376.24 369.462L380.735 379.864L384.731 370.018C384.99 369.35 385.12 368.664 385.12 367.96C385.12 367.292 384.981 366.736 384.703 366.291C384.426 365.846 383.973 365.568 383.344 365.456H390.781C390.374 365.53 389.846 365.846 389.199 366.402C388.551 366.958 387.913 367.997 387.284 369.517L379.736 387.096C378.737 389.432 377.997 391.277 377.516 392.631C377.035 393.984 376.573 395.384 376.129 396.831C375.944 397.535 375.759 398.129 375.574 398.611H369.912C370.911 398.129 372.142 396.775 373.603 394.55C375.065 392.325 376.573 389.321 378.127 385.538ZM453.941 385.705H445.338C445.782 385.631 446.263 385.232 446.781 384.509C447.299 383.786 447.558 382.441 447.558 380.476V352.662L433.017 386.317L418.254 352.717V380.198C418.254 382.2 418.577 383.6 419.225 384.398C419.872 385.195 420.455 385.631 420.973 385.705H412.759C413.314 385.631 413.925 385.214 414.591 384.453C415.257 383.693 415.59 382.275 415.59 380.198V352.328C415.59 350.548 415.275 349.324 414.646 348.657C414.017 347.989 413.388 347.581 412.759 347.433H420.252L433.849 378.529L447.225 347.433H453.941C453.46 347.507 452.942 347.896 452.387 348.601C451.832 349.306 451.554 350.604 451.554 352.495V380.698C451.554 382.553 451.832 383.832 452.387 384.537C452.942 385.241 453.46 385.631 453.941 385.705ZM478.361 386.373C477.177 386.335 476.178 386.02 475.364 385.427C474.55 384.834 474.087 384.147 473.976 383.369C473.31 384.333 472.432 385.075 471.34 385.594C470.249 386.113 469.166 386.373 468.093 386.373C466.391 386.373 464.967 385.881 463.82 384.898C462.673 383.916 462.099 382.627 462.099 381.032C462.099 376.916 465.947 374.857 473.643 374.857V374.246C473.643 372.206 473.347 370.704 472.755 369.74C471.941 368.368 470.609 367.681 468.759 367.681C467.316 367.681 466.123 368.108 465.179 368.961C464.236 369.814 463.764 370.926 463.764 372.299C463.542 371.928 463.366 371.594 463.237 371.297C463.107 371.001 463.043 370.593 463.043 370.073C463.043 368.738 463.672 367.561 464.93 366.541C466.188 365.521 467.834 365.011 469.869 365.011C472.755 365.011 474.809 365.975 476.03 367.904C476.437 368.497 476.733 369.239 476.918 370.129C477.103 371.019 477.195 372.187 477.195 373.634V380.253C477.195 381.403 477.519 382.293 478.167 382.924C478.814 383.554 479.73 383.869 480.914 383.869H481.635L478.361 386.373ZM473.643 376.526C470.683 376.526 468.685 376.897 467.649 377.639C466.613 378.381 466.095 379.382 466.095 380.643C466.095 381.681 466.373 382.497 466.928 383.09C467.483 383.684 468.223 383.981 469.148 383.981C469.851 383.981 470.517 383.814 471.146 383.48C471.775 383.146 472.311 382.683 472.755 382.089C473.347 381.31 473.643 380.253 473.643 378.918V376.526ZM491.293 368.794C492.144 367.644 493.152 366.726 494.317 366.04C495.483 365.354 496.713 365.011 498.008 365.011C500.006 365.011 501.606 365.651 502.809 366.93C504.011 368.21 504.613 370.055 504.613 372.465V380.198C504.613 381.755 504.779 382.942 505.112 383.758C505.445 384.574 505.815 385.13 506.222 385.427C506.629 385.724 506.833 385.816 506.833 385.705H498.841C498.841 385.816 499.044 385.733 499.451 385.455C499.858 385.177 500.228 384.63 500.561 383.814C500.894 382.998 501.061 381.774 501.061 380.142V373.801C501.061 372.54 500.894 371.538 500.561 370.797C500.228 370.055 499.784 369.443 499.229 368.961C498.378 368.256 497.361 367.904 496.177 367.904C494.845 367.904 493.698 368.34 492.736 369.211C491.774 370.083 491.293 371.297 491.293 372.855V380.142C491.293 381.737 491.459 382.942 491.792 383.758C492.125 384.574 492.504 385.13 492.93 385.427C493.355 385.724 493.568 385.816 493.568 385.705H485.576C485.576 385.816 485.779 385.733 486.186 385.455C486.593 385.177 486.954 384.62 487.269 383.786C487.583 382.951 487.74 381.737 487.74 380.142V371.742C487.74 370.185 487.491 369.119 486.991 368.544C486.492 367.969 485.928 367.681 485.298 367.681L491.293 365.011V368.794ZM529.644 386.373C528.46 386.335 527.461 386.02 526.647 385.427C525.833 384.834 525.37 384.147 525.259 383.369C524.593 384.333 523.714 385.075 522.623 385.594C521.531 386.113 520.449 386.373 519.376 386.373C517.674 386.373 516.249 385.881 515.102 384.898C513.955 383.916 513.382 382.627 513.382 381.032C513.382 376.916 517.23 374.857 524.926 374.857V374.246C524.926 372.206 524.63 370.704 524.038 369.74C523.224 368.368 521.892 367.681 520.042 367.681C518.599 367.681 517.406 368.108 516.462 368.961C515.519 369.814 515.047 370.926 515.047 372.299C514.825 371.928 514.649 371.594 514.52 371.297C514.39 371.001 514.325 370.593 514.325 370.073C514.325 368.738 514.954 367.561 516.212 366.541C517.47 365.521 519.117 365.011 521.152 365.011C524.038 365.011 526.092 365.975 527.313 367.904C527.72 368.497 528.016 369.239 528.201 370.129C528.386 371.019 528.478 372.187 528.478 373.634V380.253C528.478 381.403 528.802 382.293 529.449 382.924C530.097 383.554 531.013 383.869 532.197 383.869H532.918L529.644 386.373ZM524.926 376.526C521.966 376.526 519.968 376.897 518.932 377.639C517.896 378.381 517.378 379.382 517.378 380.643C517.378 381.681 517.655 382.497 518.21 383.09C518.765 383.684 519.505 383.981 520.43 383.981C521.133 383.981 521.799 383.814 522.428 383.48C523.057 383.146 523.594 382.683 524.038 382.089C524.63 381.31 524.926 380.253 524.926 378.918V376.526ZM549.124 365.456H556.728V367.681H552.121C553.453 369.313 554.119 370.982 554.119 372.688C554.119 374.134 553.768 375.479 553.065 376.721C552.362 377.963 551.354 378.955 550.04 379.697C548.727 380.439 547.2 380.81 545.461 380.81C544.573 380.81 543.685 380.736 542.797 380.587C541.465 381.329 540.799 382.163 540.799 383.09C540.799 383.461 540.892 383.814 541.077 384.147C541.262 384.481 541.539 384.722 541.909 384.871C542.427 385.093 543.093 385.251 543.907 385.343C544.721 385.436 545.572 385.501 546.46 385.538C547.348 385.575 547.977 385.594 548.347 385.594C551.233 385.705 553.287 386.261 554.508 387.263C555.729 388.264 556.339 389.469 556.339 390.878C556.339 392.362 555.868 393.725 554.924 394.967C553.981 396.21 552.621 397.192 550.845 397.915C549.069 398.639 547.015 399 544.684 399C542.982 399 541.502 398.759 540.244 398.277C538.986 397.795 538.024 397.164 537.358 396.386C536.692 395.607 536.359 394.772 536.359 393.882C536.359 392.696 536.868 391.592 537.885 390.573C538.903 389.553 540.17 388.783 541.687 388.264C540.466 388.19 539.495 387.782 538.773 387.04C538.052 386.298 537.691 385.501 537.691 384.648C537.691 383.721 538.006 382.914 538.635 382.228C539.264 381.542 540.17 380.81 541.354 380.031C540.022 379.438 539.005 378.51 538.302 377.25C537.599 375.989 537.247 374.654 537.247 373.244C537.247 371.872 537.589 370.556 538.274 369.295C538.958 368.034 539.976 367.005 541.326 366.207C542.677 365.41 544.277 365.011 546.127 365.011C547.089 365.011 548.088 365.16 549.124 365.456ZM545.517 367.014C544.148 367.014 543.019 367.505 542.131 368.488C541.243 369.471 540.799 370.722 540.799 372.243C540.799 374.134 541.289 375.683 542.27 376.888C543.251 378.093 544.444 378.696 545.85 378.696C547.33 378.696 548.486 378.204 549.319 377.222C550.151 376.239 550.567 374.932 550.567 373.3C550.567 371.446 550.077 369.934 549.097 368.766C548.116 367.598 546.923 367.014 545.517 367.014ZM545.739 388.931H544.573C543.204 388.931 542.085 389.358 541.215 390.211C540.346 391.064 539.911 392.01 539.911 393.048C539.911 394.049 540.475 394.912 541.604 395.635C542.732 396.358 544.24 396.719 546.127 396.719C548.384 396.719 550.133 396.293 551.372 395.44C552.612 394.587 553.231 393.53 553.231 392.269C553.231 391.157 552.639 390.322 551.455 389.766C550.271 389.21 548.366 388.931 545.739 388.931ZM571.158 386.373C569.16 386.373 567.44 385.881 565.997 384.898C564.554 383.916 563.453 382.636 562.694 381.06C561.936 379.484 561.556 377.806 561.556 376.026C561.556 373.726 562.01 371.742 562.916 370.073C563.823 368.405 564.998 367.144 566.441 366.291C567.884 365.438 569.382 365.011 570.936 365.011C573.156 365.011 575.071 365.818 576.68 367.431C578.29 369.044 579.169 371.279 579.317 374.134H564.887C564.887 375.914 565.22 377.481 565.886 378.835C566.552 380.189 567.449 381.227 568.577 381.95C569.706 382.673 570.936 383.035 572.268 383.035C575.746 383.035 578.096 381.922 579.317 379.697C578.984 381.7 578.077 383.313 576.597 384.537C575.117 385.761 573.304 386.373 571.158 386.373ZM570.548 366.847C569.105 366.847 567.865 367.357 566.829 368.377C565.793 369.397 565.164 370.722 564.942 372.354H575.043C575.043 370.648 574.59 369.304 573.683 368.321C572.777 367.338 571.732 366.847 570.548 366.847ZM591.194 365.011V368.794C592.119 367.644 593.155 366.726 594.302 366.04C595.449 365.354 596.651 365.011 597.91 365.011C599.279 365.011 600.49 365.336 601.545 365.985C602.599 366.634 603.367 367.57 603.848 368.794C604.847 367.533 605.985 366.587 607.261 365.957C608.538 365.327 609.861 365.011 611.23 365.011C613.228 365.011 614.828 365.651 616.03 366.93C617.233 368.21 617.834 370.055 617.834 372.465V380.198C617.834 382.238 618.093 383.647 618.611 384.426C619.129 385.204 619.592 385.631 619.999 385.705H612.118C612.562 385.631 613.033 385.204 613.533 384.426C614.032 383.647 614.282 382.219 614.282 380.142V373.801C614.282 372.54 614.116 371.538 613.783 370.797C613.45 370.055 613.006 369.443 612.451 368.961C611.6 368.256 610.582 367.904 609.398 367.904C608.103 367.904 606.965 368.34 605.985 369.211C605.004 370.083 604.514 371.297 604.514 372.855V380.142C604.514 382.219 604.764 383.647 605.263 384.426C605.763 385.204 606.235 385.631 606.679 385.705H598.797C599.241 385.631 599.713 385.204 600.213 384.426C600.712 383.647 600.962 382.219 600.962 380.142V373.801C600.962 372.54 600.796 371.538 600.463 370.797C600.13 370.055 599.685 369.443 599.13 368.961C598.279 368.256 597.262 367.904 596.078 367.904C594.746 367.904 593.599 368.34 592.637 369.211C591.675 370.083 591.194 371.297 591.194 372.855V380.142C591.194 382.256 591.453 383.693 591.971 384.453C592.489 385.214 592.97 385.631 593.414 385.705H585.533C585.977 385.631 586.439 385.204 586.92 384.426C587.401 383.647 587.642 382.219 587.642 380.142V371.742C587.642 370.185 587.392 369.119 586.893 368.544C586.393 367.969 585.829 367.681 585.2 367.681L591.194 365.011ZM635.761 386.373C633.763 386.373 632.042 385.881 630.599 384.898C629.156 383.916 628.056 382.636 627.297 381.06C626.539 379.484 626.159 377.806 626.159 376.026C626.159 373.726 626.613 371.742 627.519 370.073C628.426 368.405 629.6 367.144 631.043 366.291C632.486 365.438 633.985 365.011 635.539 365.011C637.759 365.011 639.674 365.818 641.283 367.431C642.893 369.044 643.772 371.279 643.92 374.134H629.489C629.489 375.914 629.822 377.481 630.488 378.835C631.154 380.189 632.052 381.227 633.18 381.95C634.309 382.673 635.539 383.035 636.871 383.035C640.349 383.035 642.699 381.922 643.92 379.697C643.587 381.7 642.68 383.313 641.2 384.537C639.72 385.761 637.907 386.373 635.761 386.373ZM635.15 366.847C633.707 366.847 632.468 367.357 631.432 368.377C630.396 369.397 629.767 370.722 629.545 372.354H639.646C639.646 370.648 639.193 369.304 638.286 368.321C637.38 367.338 636.335 366.847 635.15 366.847ZM655.797 368.794C656.648 367.644 657.656 366.726 658.822 366.04C659.987 365.354 661.217 365.011 662.512 365.011C664.51 365.011 666.111 365.651 667.313 366.93C668.516 368.21 669.117 370.055 669.117 372.465V380.198C669.117 381.755 669.283 382.942 669.616 383.758C669.949 384.574 670.319 385.13 670.726 385.427C671.133 385.724 671.337 385.816 671.337 385.705H663.345C663.345 385.816 663.548 385.733 663.955 385.455C664.362 385.177 664.732 384.63 665.065 383.814C665.398 382.998 665.565 381.774 665.565 380.142V373.801C665.565 372.54 665.398 371.538 665.065 370.797C664.732 370.055 664.288 369.443 663.733 368.961C662.882 368.256 661.865 367.904 660.681 367.904C659.349 367.904 658.202 368.34 657.24 369.211C656.278 370.083 655.797 371.297 655.797 372.855V380.142C655.797 381.737 655.963 382.942 656.296 383.758C656.629 384.574 657.009 385.13 657.434 385.427C657.86 385.724 658.072 385.816 658.072 385.705H650.08C650.08 385.816 650.284 385.733 650.691 385.455C651.098 385.177 651.458 384.62 651.773 383.786C652.087 382.951 652.245 381.737 652.245 380.142V371.742C652.245 370.185 651.995 369.119 651.495 368.544C650.996 367.969 650.432 367.681 649.803 367.681L655.797 365.011V368.794ZM685.157 386.373C683.344 386.373 681.975 385.751 681.05 384.509C680.125 383.267 679.662 381.774 679.662 380.031V367.681H676.554L683.214 360.116V365.456H690.318V367.681H683.214V379.419C683.214 380.828 683.584 381.894 684.324 382.618C685.064 383.341 685.915 383.702 686.877 383.702C687.617 383.702 688.339 383.48 689.042 383.035C689.745 382.59 690.318 381.978 690.762 381.199C690.207 384.648 688.339 386.373 685.157 386.373ZM697.7 393.104C698.699 392.733 699.541 391.889 700.225 390.573C700.91 389.256 701.252 387.949 701.252 386.651C701.252 386.317 701.233 386.076 701.196 385.928H700.808C699.883 385.928 699.18 385.677 698.699 385.177C698.218 384.676 697.977 384.073 697.977 383.369C697.977 382.627 698.227 381.987 698.727 381.449C699.226 380.912 699.901 380.643 700.752 380.643C701.677 380.643 702.482 381.023 703.167 381.783C703.851 382.543 704.193 383.647 704.193 385.093C704.193 386.243 703.953 387.42 703.472 388.626C702.991 389.831 702.251 390.86 701.252 391.713C700.253 392.566 699.069 393.029 697.7 393.104ZM733.72 349.658C732.092 349.658 730.741 349.973 729.668 350.604C728.595 351.234 727.818 352.031 727.337 352.996L728.114 347.433H754.422L755.199 352.996C754.718 352.031 753.941 351.234 752.868 350.604C751.795 349.973 750.444 349.658 748.816 349.658H743.266V380.532C743.266 382.015 743.451 383.146 743.821 383.925C744.191 384.704 744.598 385.223 745.042 385.483C745.486 385.742 745.708 385.816 745.708 385.705H736.883C736.883 385.816 737.105 385.742 737.549 385.483C737.993 385.223 738.391 384.713 738.743 383.953C739.094 383.192 739.27 382.052 739.27 380.532V349.658H733.72ZM773.181 386.373C771.997 386.335 770.998 386.02 770.184 385.427C769.37 384.834 768.907 384.147 768.796 383.369C768.13 384.333 767.251 385.075 766.16 385.594C765.068 386.113 763.986 386.373 762.913 386.373C761.211 386.373 759.787 385.881 758.64 384.898C757.493 383.916 756.919 382.627 756.919 381.032C756.919 376.916 760.767 374.857 768.463 374.857V374.246C768.463 372.206 768.167 370.704 767.575 369.74C766.761 368.368 765.429 367.681 763.579 367.681C762.136 367.681 760.943 368.108 759.999 368.961C759.056 369.814 758.584 370.926 758.584 372.299C758.362 371.928 758.186 371.594 758.057 371.297C757.927 371.001 757.863 370.593 757.863 370.073C757.863 368.738 758.492 367.561 759.75 366.541C761.008 365.521 762.654 365.011 764.689 365.011C767.575 365.011 769.629 365.975 770.85 367.904C771.257 368.497 771.553 369.239 771.738 370.129C771.923 371.019 772.015 372.187 772.015 373.634V380.253C772.015 381.403 772.339 382.293 772.987 382.924C773.634 383.554 774.55 383.869 775.734 383.869H776.455L773.181 386.373ZM768.463 376.526C765.503 376.526 763.505 376.897 762.469 377.639C761.433 378.381 760.915 379.382 760.915 380.643C760.915 381.681 761.193 382.497 761.748 383.09C762.303 383.684 763.043 383.981 763.968 383.981C764.671 383.981 765.337 383.814 765.966 383.48C766.595 383.146 767.131 382.683 767.575 382.089C768.167 381.31 768.463 380.253 768.463 378.918V376.526ZM782.56 371.742C782.56 370.185 782.311 369.119 781.811 368.544C781.312 367.969 780.747 367.681 780.118 367.681L786.112 365.011V380.142C786.112 381.774 786.279 382.998 786.612 383.814C786.945 384.63 787.315 385.177 787.722 385.455C788.129 385.733 788.332 385.816 788.332 385.705H780.34C780.34 385.816 780.544 385.733 780.951 385.455C781.358 385.177 781.728 384.63 782.061 383.814C782.394 382.998 782.56 381.774 782.56 380.142V371.742ZM784.281 358.28C783.467 358.28 782.829 358.011 782.366 357.474C781.904 356.936 781.672 356.315 781.672 355.61C781.672 354.905 781.904 354.284 782.366 353.747C782.829 353.209 783.467 352.94 784.281 352.94C785.095 352.94 785.733 353.209 786.196 353.747C786.658 354.284 786.889 354.905 786.889 355.61C786.889 356.315 786.658 356.936 786.196 357.474C785.733 358.011 785.095 358.28 784.281 358.28ZM796.658 351.494C796.658 349.936 796.408 348.87 795.908 348.295C795.409 347.72 794.845 347.433 794.216 347.433H793.883L800.21 344.54V380.142C800.21 381.774 800.376 382.998 800.709 383.814C801.042 384.63 801.412 385.177 801.819 385.455C802.226 385.733 802.43 385.816 802.43 385.705H794.438C794.438 385.816 794.641 385.733 795.048 385.455C795.455 385.177 795.825 384.62 796.158 383.786C796.491 382.951 796.658 381.737 796.658 380.142V351.494ZM808.535 376.193C808.535 374.264 809.007 372.438 809.95 370.713C810.894 368.989 812.198 367.607 813.863 366.569C815.528 365.53 817.378 365.011 819.413 365.011C821.374 365.011 823.15 365.466 824.741 366.374C826.332 367.283 827.581 368.516 828.487 370.073C829.394 371.631 829.847 373.337 829.847 375.191C829.847 377.12 829.375 378.946 828.432 380.671C827.488 382.395 826.184 383.777 824.519 384.815C822.854 385.853 821.004 386.373 818.969 386.373C817.008 386.373 815.232 385.918 813.641 385.01C812.05 384.101 810.801 382.868 809.895 381.31C808.988 379.753 808.535 378.047 808.535 376.193ZM825.851 376.804C825.851 375.247 825.555 373.708 824.963 372.187C824.371 370.667 823.539 369.424 822.465 368.46C821.392 367.496 820.153 367.014 818.747 367.014C816.786 367.014 815.26 367.756 814.168 369.239C813.077 370.722 812.531 372.503 812.531 374.579C812.531 376.137 812.827 377.676 813.419 379.197C814.011 380.717 814.843 381.959 815.916 382.924C816.989 383.888 818.229 384.37 819.635 384.37C821.596 384.37 823.122 383.628 824.214 382.145C825.305 380.661 825.851 378.881 825.851 376.804ZM841.724 370.073C842.279 368.887 843.195 367.746 844.472 366.652C845.748 365.558 847.034 365.011 848.329 365.011C849.143 365.011 849.753 365.123 850.16 365.345V369.907C849.346 368.905 848.199 368.405 846.719 368.405C845.165 368.405 843.944 369.081 843.056 370.435C842.168 371.789 841.724 373.522 841.724 375.636V380.142C841.724 382.219 841.965 383.647 842.446 384.426C842.927 385.204 843.389 385.631 843.833 385.705H836.008C836.452 385.631 836.923 385.214 837.423 384.453C837.922 383.693 838.172 382.256 838.172 380.142V371.742C838.172 370.185 837.922 369.119 837.423 368.544C836.923 367.969 836.359 367.681 835.73 367.681L841.724 365.011V370.073ZM864.979 386.373C862.981 386.373 861.26 385.881 859.817 384.898C858.374 383.916 857.274 382.636 856.515 381.06C855.757 379.484 855.377 377.806 855.377 376.026C855.377 373.726 855.831 371.742 856.737 370.073C857.644 368.405 858.818 367.144 860.261 366.291C861.705 365.438 863.203 365.011 864.757 365.011C866.977 365.011 868.892 365.818 870.501 367.431C872.111 369.044 872.99 371.279 873.138 374.134H858.707C858.707 375.914 859.04 377.481 859.706 378.835C860.372 380.189 861.27 381.227 862.398 381.95C863.527 382.673 864.757 383.035 866.089 383.035C869.567 383.035 871.917 381.922 873.138 379.697C872.805 381.7 871.898 383.313 870.418 384.537C868.938 385.761 867.125 386.373 864.979 386.373ZM864.369 366.847C862.926 366.847 861.686 367.357 860.65 368.377C859.614 369.397 858.985 370.722 858.763 372.354H868.864C868.864 370.648 868.411 369.304 867.504 368.321C866.598 367.338 865.553 366.847 864.369 366.847ZM894.783 366.513V351.494C894.783 349.936 894.533 348.87 894.034 348.295C893.534 347.72 892.97 347.433 892.341 347.433H892.008L898.335 344.54V379.419C898.335 380.977 898.585 382.043 899.084 382.618C899.584 383.192 900.148 383.48 900.777 383.48H901.11L894.783 386.373V382.757C894.339 383.498 893.534 384.287 892.369 385.121C891.203 385.955 889.677 386.373 887.79 386.373C886.162 386.373 884.7 385.965 883.405 385.149C882.11 384.333 881.093 383.202 880.353 381.755C879.613 380.309 879.243 378.696 879.243 376.916C879.243 374.654 879.705 372.651 880.63 370.908C881.555 369.165 882.758 367.774 884.238 366.736C885.903 365.586 887.716 365.011 889.677 365.011C890.972 365.011 892.045 365.187 892.896 365.54C893.747 365.892 894.376 366.217 894.783 366.513ZM883.239 375.247C883.239 377.583 883.785 379.614 884.876 381.338C885.968 383.063 887.549 383.925 889.621 383.925C890.398 383.925 891.194 383.712 892.008 383.285C892.822 382.859 893.488 382.275 894.006 381.533C894.524 380.791 894.783 379.957 894.783 379.03V372.465C894.783 371.279 894.644 370.315 894.367 369.573C894.089 368.831 893.654 368.275 893.062 367.904C892.137 367.311 891.009 367.014 889.677 367.014C887.827 367.014 886.291 367.765 885.07 369.267C883.849 370.769 883.239 372.762 883.239 375.247ZM935.132 386.373C933.208 386.373 931.358 386.104 929.582 385.566C927.806 385.028 926.215 384.277 924.809 383.313V376.582C925.771 379.067 927.242 380.949 929.221 382.228C931.201 383.508 933.263 384.147 935.409 384.147C937.555 384.147 939.35 383.434 940.793 382.006C942.236 380.578 942.958 378.807 942.958 376.693C942.958 375.284 942.671 374.079 942.097 373.077C941.524 372.076 940.608 371.14 939.35 370.268C938.092 369.397 936.316 368.423 934.022 367.348C930.803 365.864 928.463 364.316 927.001 362.703C925.54 361.089 924.809 359.133 924.809 356.834C924.809 354.868 925.281 353.116 926.224 351.577C927.168 350.038 928.444 348.851 930.054 348.017C931.663 347.182 933.43 346.765 935.354 346.765C937.019 346.765 938.647 346.997 940.238 347.461C941.829 347.924 943.309 348.582 944.678 349.435V355.443C943.79 353.403 942.449 351.818 940.654 350.687C938.86 349.556 937.038 348.99 935.187 348.99C933.078 348.99 931.376 349.676 930.081 351.049C928.786 352.421 928.139 354.052 928.139 355.944C928.139 357.316 928.527 358.493 929.304 359.476C930.081 360.459 931.034 361.284 932.163 361.952C933.291 362.619 934.873 363.435 936.908 364.399C938.98 365.401 940.682 366.328 942.014 367.181C943.346 368.034 944.456 369.146 945.344 370.518C946.232 371.891 946.676 373.559 946.676 375.525C946.676 377.75 946.149 379.679 945.094 381.31C944.04 382.942 942.634 384.194 940.876 385.065C939.119 385.937 937.204 386.373 935.132 386.373ZM953.947 376.193C953.947 374.264 954.418 372.438 955.362 370.713C956.305 368.989 957.61 367.607 959.275 366.569C960.94 365.53 962.79 365.011 964.825 365.011C966.786 365.011 968.562 365.466 970.153 366.374C971.744 367.283 972.993 368.516 973.899 370.073C974.806 371.631 975.259 373.337 975.259 375.191C975.259 377.12 974.787 378.946 973.844 380.671C972.9 382.395 971.596 383.777 969.931 384.815C968.266 385.853 966.416 386.373 964.381 386.373C962.42 386.373 960.644 385.918 959.053 385.01C957.462 384.101 956.213 382.868 955.307 381.31C954.4 379.753 953.947 378.047 953.947 376.193ZM971.263 376.804C971.263 375.247 970.967 373.708 970.375 372.187C969.783 370.667 968.95 369.424 967.877 368.46C966.804 367.496 965.565 367.014 964.159 367.014C962.198 367.014 960.672 367.756 959.58 369.239C958.489 370.722 957.943 372.503 957.943 374.579C957.943 376.137 958.239 377.676 958.831 379.197C959.423 380.717 960.255 381.959 961.328 382.924C962.401 383.888 963.641 384.37 965.047 384.37C967.008 384.37 968.534 383.628 969.626 382.145C970.717 380.661 971.263 378.881 971.263 376.804ZM983.584 351.494C983.584 349.936 983.334 348.87 982.835 348.295C982.335 347.72 981.771 347.433 981.142 347.433H980.809L987.136 344.54V380.142C987.136 381.774 987.303 382.998 987.636 383.814C987.969 384.63 988.339 385.177 988.746 385.455C989.153 385.733 989.356 385.816 989.356 385.705H981.364C981.364 385.816 981.568 385.733 981.975 385.455C982.382 385.177 982.752 384.62 983.085 383.786C983.418 382.951 983.584 381.737 983.584 380.142V351.494ZM1011 382.479C1009.15 385.075 1006.88 386.373 1004.17 386.373C1002.29 386.373 1000.73 385.751 999.513 384.509C998.292 383.267 997.681 381.366 997.681 378.807V370.908C997.681 369.387 997.45 368.219 996.988 367.403C996.525 366.587 995.998 366.031 995.406 365.734C994.814 365.438 994.518 365.345 994.518 365.456H1001.23V377.973C1001.23 379.716 1001.71 381.051 1002.65 381.978C1003.59 382.905 1004.71 383.369 1006.01 383.369C1007.3 383.369 1008.46 382.933 1009.48 382.061C1010.49 381.19 1011 380.049 1011 378.64V370.518C1011 369.072 1010.82 367.978 1010.45 367.236C1010.08 366.495 1009.65 365.994 1009.17 365.734C1008.69 365.475 1008.45 365.382 1008.45 365.456H1014.55V379.419C1014.55 380.977 1014.8 382.043 1015.3 382.618C1015.8 383.192 1016.37 383.48 1017 383.48H1017.33L1011 386.373V382.479ZM1030.59 386.373C1028.78 386.373 1027.41 385.751 1026.49 384.509C1025.56 383.267 1025.1 381.774 1025.1 380.031V367.681H1021.99L1028.65 360.116V365.456H1035.75V367.681H1028.65V379.419C1028.65 380.828 1029.02 381.894 1029.76 382.618C1030.5 383.341 1031.35 383.702 1032.31 383.702C1033.05 383.702 1033.78 383.48 1034.48 383.035C1035.18 382.59 1035.75 381.978 1036.2 381.199C1035.64 384.648 1033.78 386.373 1030.59 386.373ZM1043.64 371.742C1043.64 370.185 1043.39 369.119 1042.89 368.544C1042.39 367.969 1041.82 367.681 1041.19 367.681L1047.19 365.011V380.142C1047.19 381.774 1047.35 382.998 1047.69 383.814C1048.02 384.63 1048.39 385.177 1048.8 385.455C1049.2 385.733 1049.41 385.816 1049.41 385.705H1041.42C1041.42 385.816 1041.62 385.733 1042.03 385.455C1042.43 385.177 1042.8 384.63 1043.14 383.814C1043.47 382.998 1043.64 381.774 1043.64 380.142V371.742ZM1045.36 358.28C1044.54 358.28 1043.9 358.011 1043.44 357.474C1042.98 356.936 1042.75 356.315 1042.75 355.61C1042.75 354.905 1042.98 354.284 1043.44 353.747C1043.9 353.209 1044.54 352.94 1045.36 352.94C1046.17 352.94 1046.81 353.209 1047.27 353.747C1047.73 354.284 1047.97 354.905 1047.97 355.61C1047.97 356.315 1047.73 356.936 1047.27 357.474C1046.81 358.011 1046.17 358.28 1045.36 358.28ZM1055.51 376.193C1055.51 374.264 1055.98 372.438 1056.93 370.713C1057.87 368.989 1059.18 367.607 1060.84 366.569C1062.51 365.53 1064.36 365.011 1066.39 365.011C1068.35 365.011 1070.13 365.466 1071.72 366.374C1073.31 367.283 1074.56 368.516 1075.47 370.073C1076.37 371.631 1076.83 373.337 1076.83 375.191C1076.83 377.12 1076.35 378.946 1075.41 380.671C1074.47 382.395 1073.16 383.777 1071.5 384.815C1069.83 385.853 1067.98 386.373 1065.95 386.373C1063.99 386.373 1062.21 385.918 1060.62 385.01C1059.03 384.101 1057.78 382.868 1056.87 381.31C1055.97 379.753 1055.51 378.047 1055.51 376.193ZM1072.83 376.804C1072.83 375.247 1072.53 373.708 1071.94 372.187C1071.35 370.667 1070.52 369.424 1069.44 368.46C1068.37 367.496 1067.13 367.014 1065.73 367.014C1063.76 367.014 1062.24 367.756 1061.15 369.239C1060.05 370.722 1059.51 372.503 1059.51 374.579C1059.51 376.137 1059.81 377.676 1060.4 379.197C1060.99 380.717 1061.82 381.959 1062.89 382.924C1063.97 383.888 1065.21 384.37 1066.61 384.37C1068.57 384.37 1070.1 383.628 1071.19 382.145C1072.28 380.661 1072.83 378.881 1072.83 376.804ZM1088.7 368.794C1089.55 367.644 1090.56 366.726 1091.73 366.04C1092.89 365.354 1094.12 365.011 1095.42 365.011C1097.42 365.011 1099.02 365.651 1100.22 366.93C1101.42 368.21 1102.02 370.055 1102.02 372.465V380.198C1102.02 381.755 1102.19 382.942 1102.52 383.758C1102.86 384.574 1103.23 385.13 1103.63 385.427C1104.04 385.724 1104.24 385.816 1104.24 385.705H1096.25C1096.25 385.816 1096.45 385.733 1096.86 385.455C1097.27 385.177 1097.64 384.63 1097.97 383.814C1098.3 382.998 1098.47 381.774 1098.47 380.142V373.801C1098.47 372.54 1098.3 371.538 1097.97 370.797C1097.64 370.055 1097.19 369.443 1096.64 368.961C1095.79 368.256 1094.77 367.904 1093.59 367.904C1092.25 367.904 1091.11 368.34 1090.15 369.211C1089.18 370.083 1088.7 371.297 1088.7 372.855V380.142C1088.7 381.737 1088.87 382.942 1089.2 383.758C1089.54 384.574 1089.91 385.13 1090.34 385.427C1090.77 385.724 1090.98 385.816 1090.98 385.705H1082.99C1082.99 385.816 1083.19 385.733 1083.6 385.455C1084 385.177 1084.36 384.62 1084.68 383.786C1084.99 382.951 1085.15 381.737 1085.15 380.142V371.742C1085.15 370.185 1084.9 369.119 1084.4 368.544C1083.9 367.969 1083.34 367.681 1082.71 367.681L1088.7 365.011V368.794ZM1117.62 386.373C1116.51 386.373 1115.36 386.187 1114.18 385.816C1112.99 385.445 1112.01 384.963 1111.24 384.37V379.475C1111.94 381.218 1112.89 382.469 1114.09 383.23C1115.3 383.99 1116.6 384.37 1118.01 384.37C1119.15 384.37 1120.09 384.055 1120.81 383.424C1121.53 382.794 1121.89 382.108 1121.89 381.366C1121.89 380.55 1121.52 379.864 1120.78 379.308C1120.04 378.751 1118.91 378.121 1117.4 377.416C1115.44 376.489 1113.92 375.581 1112.85 374.691C1111.77 373.801 1111.24 372.595 1111.24 371.075C1111.24 369.406 1111.86 367.978 1113.12 366.791C1114.38 365.605 1116.03 365.011 1118.06 365.011C1119.47 365.011 1120.69 365.178 1121.73 365.512C1122.76 365.846 1123.54 366.217 1124.06 366.624L1123.17 370.797C1122.72 369.536 1121.98 368.59 1120.95 367.96C1119.91 367.329 1118.82 367.014 1117.67 367.014C1116.67 367.014 1115.85 367.311 1115.2 367.904C1114.56 368.497 1114.23 369.165 1114.23 369.907C1114.23 370.908 1114.63 371.705 1115.43 372.299C1116.22 372.892 1117.43 373.541 1119.06 374.246C1120.99 375.061 1122.46 375.887 1123.47 376.721C1124.49 377.555 1125 378.733 1125 380.253C1125 381.329 1124.7 382.33 1124.11 383.257C1123.52 384.185 1122.66 384.935 1121.53 385.51C1120.4 386.085 1119.1 386.373 1117.62 386.373Z" fill="white"/>
</g>
</g>
<defs>
<clipPath id="clip0_14_21">
<rect width="1125" height="399" fill="white"/>
</clipPath>
<clipPath id="clip1_14_21">
<rect width="342.894" height="268.097" fill="white" transform="translate(13.4438)"/>
</clipPath>
<clipPath id="clip2_14_21">
<rect width="688.334" height="270.063" fill="white" transform="translate(423.223)"/>
</clipPath>
<clipPath id="clip3_14_21">
<rect width="1125" height="54.4602" fill="white" transform="translate(0 344.54)"/>
</clipPath>
</defs>
</svg>
