<svg width="28" height="24" viewBox="0 0 28 24" fill="none" xmlns="http://www.w3.org/2000/svg">
<path d="M1.5 20.7358V6.98584H0.25V4.48584H4V1.98584C4 1.65432 4.1317 1.33638 4.36612 1.10196C4.60054 0.867536 4.91848 0.73584 5.25 0.73584H22.75C23.0815 0.73584 23.3995 0.867536 23.6339 1.10196C23.8683 1.33638 24 1.65432 24 1.98584V4.48584H27.75V6.98584H26.5V20.7358H27.75V23.2358H0.25V20.7358H1.5ZM15.25 20.7358V11.9858H12.75V20.7358H15.25ZM9 20.7358V11.9858H6.5V20.7358H9ZM21.5 20.7358V11.9858H19V20.7358H21.5ZM6.5 3.23584V4.48584H21.5V3.23584H6.5Z" fill="#FF0000"/>
</svg>
