<svg width="30" height="31" viewBox="0 0 30 31" fill="none" xmlns="http://www.w3.org/2000/svg">
<g clip-path="url(#clip0_15_16)">
<path d="M2.5 24.7358V10.9858H1.25V8.48584H5V5.98584C5 5.65432 5.1317 5.33638 5.36612 5.10196C5.60054 4.86754 5.91848 4.73584 6.25 4.73584H23.75C24.0815 4.73584 24.3995 4.86754 24.6339 5.10196C24.8683 5.33638 25 5.65432 25 5.98584V8.48584H28.75V10.9858H27.5V24.7358H28.75V27.2358H1.25V24.7358H2.5ZM16.25 24.7358V15.9858H13.75V24.7358H16.25ZM10 24.7358V15.9858H7.5V24.7358H10ZM22.5 24.7358V15.9858H20V24.7358H22.5ZM7.5 7.23584V8.48584H22.5V7.23584H7.5Z" fill="#087c7c"/>
</g>
<defs>
<clipPath id="clip0_15_16">
<rect width="30" height="30" fill="white" transform="translate(0 0.98584)"/>
</clipPath>
</defs>
</svg>
