<svg width="36" height="35" viewBox="0 0 36 35" fill="none" xmlns="http://www.w3.org/2000/svg">
<path d="M15.4299 16.5496H22.6346V19.2357H15.4299V16.5496ZM22.6346 8.43186H15.4299V11.1378H22.6346V8.43186ZM12.738 13.7647L9.43253 17.5174L7.76991 15.9768L5.90934 17.9519L9.61066 21.4084L14.7767 15.483L12.738 13.7647ZM7.76991 24.0945L5.90934 26.0696L9.61066 29.5261L14.7767 23.6007L12.7974 21.8034L9.4919 25.5561L7.76991 24.0945ZM12.738 5.56794L9.47212 9.36016L7.80947 7.81957L5.9489 9.79468L9.65025 13.3104L14.8163 7.38505L12.738 5.56794ZM35.2231 22.8897L26.0984 32.232C25.5714 32.7616 24.9274 33.1607 24.2181 33.3973L17.7457 34.8391L19.2104 28.4003C19.4475 27.697 19.8398 27.0557 20.3584 26.5239L29.4831 17.1619L35.2231 22.8897ZM31.403 22.8897L29.4236 20.9146L22.1991 28.341L22.0606 28.499L24.0399 30.4741L24.1982 30.3359L31.403 22.8897ZM3.17787 30.7901V4.22486C3.17787 4.04589 3.21319 3.86868 3.28182 3.70333C3.35046 3.53798 3.45107 3.38775 3.57789 3.2612C3.70471 3.13465 3.85526 3.03426 4.02096 2.96577C4.18666 2.89729 4.36425 2.86203 4.5436 2.86203H23.9014C24.0798 2.86201 24.2564 2.8974 24.421 2.96612C24.5856 3.03485 24.7349 3.13555 24.8601 3.26237C24.9854 3.38918 25.0841 3.53959 25.1506 3.70482C25.217 3.87006 25.2499 4.04683 25.2473 4.22486V17.4976L27.9788 14.7127V4.22486C27.9735 3.14737 27.5423 2.11548 26.7788 1.35357C26.0152 0.591656 24.9811 0.161321 23.9014 0.156128H4.50401C3.42261 0.156128 2.38552 0.584795 1.62086 1.34783C0.856201 2.11087 0.426613 3.14577 0.426613 4.22486V30.7704C0.426613 31.8495 0.856201 32.8844 1.62086 33.6474C2.38552 34.4105 3.42261 34.8391 4.50401 34.8391H14.8558L15.4695 32.1332H4.50401C4.15569 32.113 3.82831 31.9606 3.58907 31.7072C3.34983 31.4538 3.21688 31.1186 3.21746 30.7704L3.17787 30.7901Z" fill="white"/>
</svg>
