<svg width="41" height="41" viewBox="0 0 41 41" fill="none" xmlns="http://www.w3.org/2000/svg">
<g clip-path="url(#clip0_421_27193)">
<path d="M40.0075 24.8548H39.5409C37.7748 24.8548 36.0079 24.8623 34.2418 24.8473C33.9399 24.8473 33.7818 24.9309 33.7074 25.2244C33.6483 25.4254 33.5728 25.6212 33.4816 25.8098C33.1647 26.5406 33.1639 26.5398 33.7417 27.1185L37.4453 30.8204L30.6644 37.6022C30.5989 37.4762 30.5192 37.3581 30.4269 37.2502C29.1926 36.0067 27.9458 34.7749 26.7182 33.5248C26.5058 33.309 26.3344 33.2597 26.0735 33.4119C25.8664 33.5252 25.6509 33.6222 25.4288 33.7021C24.7598 33.963 24.7598 33.9605 24.7598 34.6922C24.7598 36.3328 24.7598 37.9738 24.7598 39.615V40.1025H15.2762C15.2695 39.9671 15.2561 39.8216 15.2553 39.6752C15.2553 37.8949 15.2477 36.1154 15.2619 34.3351C15.2619 34.055 15.19 33.9069 14.9174 33.8175C14.5733 33.7076 14.2395 33.5677 13.9198 33.3994C13.643 33.2505 13.4791 33.3266 13.2767 33.5323C11.9388 34.8895 10.5908 36.2333 9.28795 37.5395L2.49948 30.7552C2.6098 30.7074 2.71239 30.6434 2.80386 30.5654C4.07827 29.3019 5.34181 28.0325 6.61789 26.7673C6.79349 26.5933 6.84534 26.4528 6.71405 26.2337C6.61488 26.0505 6.52881 25.8605 6.4565 25.6651C6.12201 24.859 6.12201 24.8582 5.27073 24.8582H0V15.3653H6.11615C6.34277 14.831 6.56939 14.3384 6.75168 13.83C6.78848 13.7263 6.69482 13.5265 6.60033 13.4311C5.32982 12.145 4.05263 10.865 2.76874 9.59119C2.68512 9.50757 2.57808 9.4298 2.51787 9.37628L9.2821 2.61121C9.65422 3.00006 10.059 3.43573 10.4771 3.85803C11.427 4.8155 12.3895 5.76211 13.3336 6.72544C13.5109 6.9069 13.6539 6.93534 13.868 6.81659C14.0773 6.7071 14.2932 6.61048 14.5144 6.52726C15.2528 6.23458 15.2536 6.23625 15.2536 5.42428V0.102539H24.7606V0.546575C24.7606 2.30265 24.7698 4.0512 24.7531 5.80392C24.7531 6.12671 24.8175 6.31318 25.1537 6.40517C25.4738 6.49886 25.7834 6.62523 26.0777 6.78231C26.3352 6.91443 26.5017 6.89352 26.7166 6.67527C27.9525 5.41341 29.2094 4.17245 30.4553 2.91978C30.5457 2.81569 30.6265 2.70375 30.697 2.58529L37.4704 9.35872C36.8708 9.95662 36.2412 10.5838 35.6123 11.2118C34.884 11.9385 34.1631 12.6744 33.4239 13.386C33.2249 13.5783 33.1639 13.7347 33.2977 13.9948C33.4675 14.3287 33.6112 14.6754 33.7275 15.0317C33.8111 15.2917 33.9566 15.357 34.2167 15.3553C35.9836 15.3444 37.7497 15.3494 39.5167 15.3494H40.0067L40.0075 24.8548ZM38.8477 16.5218H38.3459C36.6735 16.5218 35.0069 16.5218 33.3378 16.5268C33.0961 16.5268 32.9791 16.4641 32.8871 16.2225C32.5827 15.4188 32.2599 14.6211 31.9028 13.84C31.7674 13.544 31.7632 13.3726 32.0124 13.1309C33.2082 11.9669 34.3806 10.7786 35.5605 9.59788C35.6558 9.50338 35.7444 9.40136 35.8155 9.32527L30.7622 4.26443L26.7124 8.32263C25.7399 7.93295 24.8359 7.5508 23.9085 7.21045C23.6426 7.11345 23.5799 6.98969 23.5816 6.73464C23.5908 5.06219 23.5857 3.39559 23.5857 1.72649V1.27325H16.4268V1.7499C16.4268 3.42235 16.4226 5.08811 16.4318 6.75722C16.4318 6.99889 16.3683 7.10927 16.1249 7.20209C15.282 7.52376 14.4505 7.87051 13.6305 8.24236C13.3913 8.3519 13.2692 8.31678 13.1003 8.14535C12.0651 7.09589 11.0189 6.05479 9.977 5.01285C9.72614 4.76199 9.47527 4.50108 9.29214 4.3121L4.22461 9.37628C5.46975 10.6223 6.75419 11.9142 8.047 13.1978C8.21424 13.3651 8.25522 13.4913 8.14734 13.7297C7.79278 14.5124 7.4516 15.3034 7.16143 16.1112C7.03851 16.4541 6.87294 16.536 6.53594 16.5293C4.89443 16.5126 3.25292 16.5218 1.61141 16.5218H1.18326V23.6841H1.67245C3.31396 23.6841 4.95547 23.6941 6.59698 23.6757C6.9206 23.6757 7.04687 23.7861 7.15642 24.0771C7.45913 24.8807 7.79195 25.6743 8.14233 26.4587C8.24435 26.687 8.23766 26.8166 8.0587 26.9922C7.38972 27.6403 6.7358 28.3051 6.07601 28.964L4.20454 30.8305L9.29214 35.9172C9.36618 35.8199 9.44517 35.7264 9.52879 35.6371C10.7162 34.4446 11.9112 33.2589 13.0919 32.0597C13.2818 31.8674 13.4197 31.8599 13.6622 31.9686C14.4592 32.3248 15.2661 32.6601 16.0873 32.967C16.3566 33.0682 16.4394 33.1895 16.4377 33.4688C16.4235 35.1412 16.4302 36.807 16.4302 38.4761V38.9276H23.5891V38.446C23.5891 36.7735 23.5849 35.1078 23.5974 33.4387C23.5974 33.3049 23.6811 33.095 23.7806 33.0523C24.7381 32.6501 25.7039 32.2755 26.7692 31.8548L30.7697 35.8528L35.7904 30.8338C34.4625 29.5059 33.097 28.1412 31.7766 26.8199C32.1554 25.8691 32.5359 24.9802 32.8637 24.0646C32.9749 23.7535 33.1145 23.6749 33.4248 23.6774C35.0797 23.6916 36.7354 23.6849 38.3911 23.6833C38.5383 23.6833 38.6863 23.6699 38.851 23.6615L38.8477 16.5218Z" fill="white"/>
<path d="M23.0796 19.375L22.2325 18.5387C23.0687 17.807 23.7302 16.8663 24.7821 16.3294C27.3184 15.0366 30.4768 16.7342 30.8163 19.5547C31.1935 22.6973 28.2082 25.1575 25.1367 24.0118C24.5514 23.7911 23.9894 23.373 23.5328 22.9247C21.3829 20.8275 19.2773 18.6842 17.1474 16.5694C15.3077 14.7423 12.7221 14.386 10.6249 15.7198C8.91227 16.8069 8.06433 18.42 8.20817 20.4445C8.35952 22.5735 9.47923 24.108 11.4644 24.8966C13.3836 25.6592 15.1906 25.3255 16.7577 23.9767C17.3548 23.4633 17.849 22.8311 18.4026 22.239L19.2714 23.1338C17.9435 24.5696 16.603 25.9418 14.5501 26.3407C10.3807 27.1502 6.4939 23.5461 7.07257 19.3415C7.41626 16.8404 8.77345 15.0659 11.1316 14.1837C13.5358 13.2847 15.7994 13.7028 17.6692 15.4723C19.9412 17.6214 22.1163 19.8742 24.3289 22.0868C25.278 23.036 26.3793 23.3796 27.6738 22.9548C28.9081 22.5509 29.8196 21.1536 29.6766 19.9043C29.501 18.369 28.4574 17.2668 27.0533 17.0988C26.0089 16.9733 25.1417 17.3078 24.4084 18.0345C23.9551 18.4819 23.5111 18.9376 23.0796 19.375Z" fill="white"/>
<path d="M21.5912 17.9284C21.4649 17.8256 21.4239 17.7946 21.3813 17.7612C21.1614 17.5496 20.9431 17.3364 20.7173 17.1164C22.4098 15.1028 24.3131 13.6043 27.1345 13.7715C30.3749 13.9622 33.091 16.8865 32.9739 20.2155C32.8769 22.955 31.5439 24.9435 29.0118 25.9654C26.4246 27.009 24.0606 26.4429 22.0712 24.497C19.9229 22.3905 17.8114 20.2556 15.6933 18.1224C14.7734 17.1975 13.7014 16.8355 12.432 17.2118C11.3449 17.5329 10.4702 18.5915 10.3532 19.6954C10.2177 20.9698 10.798 22.1463 11.8483 22.725C12.9638 23.3405 14.2784 23.2727 15.2091 22.49C15.8246 21.9732 16.3798 21.387 16.9786 20.8176L17.7747 21.6538C16.7712 22.5962 15.9458 23.7979 14.4582 24.1549C12.8986 24.5304 11.5122 24.1959 10.3883 23.0678C9.26439 21.9398 8.88725 20.5441 9.3154 19.0013C9.83887 17.1106 11.3834 15.9073 13.3243 15.8939C14.5426 15.8847 15.5879 16.3555 16.4568 17.2318C18.544 19.3341 20.6384 21.4297 22.7402 23.5186C22.8873 23.6657 23.0379 23.8104 23.1934 23.9484C23.9896 24.6642 24.9885 25.1151 26.052 25.2388C27.1156 25.3626 28.1913 25.153 29.1306 24.6391C31.0539 23.5713 32.1168 21.3979 31.7496 19.2973C31.3558 17.0395 29.7134 15.3762 27.4899 15.0142C25.8526 14.7482 24.3959 15.1689 23.17 16.2861C22.6197 16.7861 22.1314 17.3623 21.5912 17.9284Z" fill="white"/>
<path d="M26.9943 27.1042L27.772 27.902C24.0542 31.9736 16.6502 32.5012 12.1948 27.902C12.4591 27.657 12.7225 27.4111 13.026 27.1285C14.9494 28.9632 17.2598 29.9784 19.9667 29.9834C22.6736 29.9884 25.0033 29.0042 26.9943 27.1042Z" fill="white"/>
<path d="M27.7954 12.2704L26.9893 13.0506C23.7849 10.1589 20.1431 9.46484 16.0347 10.9976L15.5898 10.0109C18.8988 8.31085 24.3159 8.67628 27.7954 12.2704Z" fill="white"/>
<path d="M6.09883 31.517L5.4541 30.8146L8.12417 28.1997L8.79315 28.8921L6.09883 31.517Z" fill="white"/>
<path d="M30.5548 7.13513L29.8164 6.38671L30.8642 5.32471L31.6461 6.1233L30.5548 7.13513Z" fill="white"/>
<path d="M13.8267 12.3591L13.0106 13.0857L12.2212 12.2353L13.09 11.4451L13.8267 12.3591Z" fill="white"/>
<path d="M29.2681 7.01807L30.0207 7.75144L29.2179 8.53163L28.436 7.73388L29.2681 7.01807Z" fill="white"/>
<path d="M14.8156 10.312L15.3642 11.3406L14.4268 11.9209L13.7578 10.9551L14.8156 10.312Z" fill="white"/>
<path d="M28.6424 9.15711L27.8004 9.9256L27.0269 9.1337L27.8397 8.33594L28.6424 9.15711Z" fill="white"/>
</g>
<defs>
<clipPath id="clip0_421_27193">
<rect width="40.0075" height="40" fill="white" transform="translate(0 0.102539)"/>
</clipPath>
</defs>
</svg>
