<svg width="12" height="12" viewBox="0 0 12 12" fill="none" xmlns="http://www.w3.org/2000/svg">
<g clip-path="url(#clip0_109_8623)">
<path d="M6.00022 11L1.40422 6.40395C0.314215 5.11995 0.371215 3.19395 1.58072 1.98395C2.16072 1.40396 2.93859 1.06472 3.75827 1.03431C4.57795 1.00389 5.37882 1.28454 6.00022 1.81995C6.62098 1.28454 7.42115 1.00349 8.24038 1.03313C9.05962 1.06277 9.83739 1.40091 10.4178 1.97978C10.9983 2.55865 11.3385 3.3355 11.3704 4.15464C11.4023 4.97379 11.1234 5.77472 10.5897 6.39695L6.00022 11ZM9.83122 5.74545C10.2006 5.31465 10.3936 4.76017 10.3715 4.1931C10.3494 3.62603 10.1138 3.08826 9.71194 2.68755C9.31009 2.28684 8.77166 2.05278 8.20453 2.03227C7.6374 2.01176 7.08346 2.20631 6.65372 2.57695L6.00022 3.14095L5.34671 2.57695C4.91697 2.20631 4.36303 2.01176 3.7959 2.03227C3.22877 2.05278 2.69034 2.28684 2.28849 2.68755C1.88664 3.08826 1.65105 3.62603 1.62893 4.1931C1.60681 4.76017 1.7998 5.31465 2.16921 5.74545L2.22622 5.81145L6.00022 9.58595L9.77422 5.81145L9.83122 5.74545V5.74545Z" fill="#F99417"/>
</g>
<defs>
<clipPath id="clip0_109_8623">
<rect width="12" height="12" fill="white"/>
</clipPath>
</defs>
</svg>
