<svg width="40" height="39" viewBox="0 0 40 39" fill="none" xmlns="http://www.w3.org/2000/svg">
<g clip-path="url(#clip0_421_27133)">
<path d="M28.8284 38.1718C28.527 37.98 28.1943 37.8226 27.9305 37.5878C27.5853 37.2802 27.4562 36.8442 27.4609 36.3863C27.4609 36.1632 27.3787 36.0693 27.1767 35.9949C26.7979 35.8618 26.43 35.6959 26.0245 35.5299C25.6558 35.908 25.2214 36.2211 24.6288 36.2282C24.1498 36.2336 23.7302 36.0943 23.3843 35.764C23.0171 35.4133 22.6508 35.0595 22.3048 34.69C21.6223 33.9581 21.6246 32.9679 22.3134 32.2306C22.47 32.0639 22.5123 31.9449 22.4011 31.7288C22.2172 31.3719 22.0802 30.9915 21.9095 30.5883H15.5691C15.4522 30.5931 15.335 30.5899 15.2185 30.579C15.0152 30.5587 14.8281 30.4589 14.6982 30.3012C14.5682 30.1436 14.5059 29.9409 14.5249 29.7375C14.5515 29.3257 14.8584 29.0259 15.3022 29.0236C16.6697 29.0142 18.0364 29.0236 19.4031 29.0189H19.8673C19.8673 28.514 19.8673 28.0491 19.8673 27.5849C19.8743 26.3974 20.4974 25.7368 21.6864 25.628C21.7502 25.6193 21.8113 25.5967 21.8654 25.5618C21.9195 25.5269 21.9653 25.4805 21.9995 25.426C22.1796 25.0393 22.3252 24.6354 22.4919 24.2167C22.4089 24.1259 22.3103 24.0233 22.2187 23.9153C21.9315 23.5891 21.7766 23.1674 21.7845 22.7329C21.7923 22.2985 21.9623 21.8826 22.261 21.567C22.5968 21.2046 22.9506 20.8578 23.3075 20.5157C24.0277 19.8238 25.0296 19.8019 25.7662 20.4821C25.9658 20.6676 26.12 20.7083 26.3353 20.5518C26.399 20.5064 26.4703 20.4727 26.5458 20.4523C27.1039 20.2958 27.4851 20.0735 27.5282 19.3627C27.5713 18.652 28.2491 18.144 28.9599 18.0829C29.518 18.0395 30.0782 18.0308 30.6373 18.0571C31.6416 18.0978 32.307 18.7467 32.3774 19.7541C32.3954 20.0163 32.4714 20.14 32.7265 20.2159C33.0357 20.3091 33.3222 20.4758 33.6283 20.5799C33.6881 20.5994 33.7513 20.6059 33.8138 20.5991C33.8763 20.5922 33.9366 20.572 33.9907 20.54C34.5746 20.0704 34.7375 19.9921 35.5414 19.9584V12.0674H1.5929C1.58507 12.1997 1.57255 12.3241 1.57255 12.4494C1.57255 17.0311 1.57255 21.6132 1.57255 26.1955C1.57255 26.8749 1.71736 27.5129 2.10952 28.0741C2.53848 28.6933 3.11616 29.0259 3.88796 29.0213C5.34547 29.0113 6.80349 29.0113 8.26204 29.0213C8.84598 29.0213 9.20136 29.4635 9.07455 29.9919C8.98923 30.3441 8.7043 30.5813 8.30118 30.5829C6.69965 30.5891 5.09733 30.6204 3.49736 30.5688C1.95688 30.5234 0.581567 29.2561 0.169051 27.5661C0.0622269 27.1239 0.00810078 26.6707 0.00780131 26.2158C-0.00159185 18.9518 -0.00420106 11.688 -2.63225e-05 4.42448C0.0038875 2.83077 0.564346 1.49929 1.92244 0.581107C2.52204 0.177984 3.20226 0.0464799 3.92397 0.0472627C11.3837 0.0535248 18.8427 0.0548294 26.3008 0.0511765C28.5661 0.0511765 30.833 0.107535 33.096 0.0355213C35.474 -0.0427551 36.9041 1.87502 37.1045 3.71451C37.1386 4.05182 37.1543 4.39074 37.1515 4.72975C37.1515 10.0525 37.1546 15.3753 37.1609 20.6981C37.1609 20.8868 37.2172 21.1232 37.337 21.2555C38.3194 22.3325 38.3413 23.0824 37.3801 24.1979C37.5491 24.6237 37.7159 25.0589 37.8983 25.4832C37.9173 25.5208 37.9448 25.5534 37.9786 25.5786C38.0125 25.6037 38.0517 25.6206 38.0932 25.628C39.0732 25.6108 39.6532 26.1415 40 26.9994V29.1864C39.7714 29.8126 39.4215 30.4294 38.7397 30.4788C37.9867 30.5328 37.7456 30.9382 37.5758 31.53C37.5603 31.5929 37.5338 31.6525 37.4975 31.7061C37.3488 31.9081 37.3918 32.0521 37.5656 32.2368C38.263 32.9813 38.2489 33.9895 37.546 34.7229C37.2141 35.0705 36.876 35.4141 36.5284 35.7405C35.8873 36.3377 34.9527 36.3988 34.2741 35.897C34.1175 35.7835 33.9829 35.6481 33.8537 35.537C33.4295 35.7084 33.0302 35.8618 32.6396 36.034C32.5528 36.0724 32.433 36.1788 32.4338 36.2532C32.4338 37.2457 31.9156 37.843 31.0248 38.1694L28.8284 38.1718ZM1.5882 10.4298H35.5695C35.5695 10.0831 35.5695 9.76057 35.5695 9.43808C35.5695 7.65416 35.5946 5.87024 35.5492 4.08711C35.51 2.53802 34.5198 1.61905 32.9848 1.61905H29.0789C20.7064 1.61905 12.3342 1.61723 3.96232 1.61357C3.22809 1.61357 2.64258 1.86327 2.19797 2.43704C1.75336 3.01081 1.57176 3.68476 1.57176 4.40804C1.57176 6.29606 1.57176 8.18383 1.57176 10.0713C1.57255 10.1848 1.58429 10.2991 1.59211 10.4298H1.5882ZM24.5623 21.5803C24.5187 21.5875 24.4766 21.6021 24.4379 21.6234C24.2756 21.7736 24.1161 21.9265 23.9596 22.0821C23.2864 22.7521 23.2872 22.7529 23.9306 23.4174C24.3502 23.8503 24.3619 24.0985 24.102 24.6378C23.8206 25.2066 23.5751 25.7924 23.367 26.3919C23.151 27.0377 22.9686 27.217 22.2876 27.2209C21.4477 27.2264 21.4438 27.2264 21.4493 28.0819C21.4555 29.1731 21.3256 29.0119 22.3714 29.0213C22.9678 29.0275 23.1627 29.2076 23.3529 29.7617C23.5606 30.3749 23.8066 30.9744 24.0895 31.5566C24.3799 32.1453 24.3737 32.3887 23.8977 32.8662C23.2981 33.4674 23.2981 33.4673 23.8977 34.0638C24.5654 34.7315 24.5654 34.7315 25.2339 34.0803C25.6605 33.6646 25.9048 33.6615 26.455 33.9323C27.0119 34.2118 27.5872 34.4527 28.1771 34.6532C28.8816 34.8881 29.0382 35.0446 29.0382 35.7828C29.0436 36.7009 28.9434 36.5992 29.8467 36.6015C30.8252 36.6015 30.8252 36.6015 30.844 35.6121C30.8542 35.0728 31.0365 34.8818 31.5633 34.6971C32.1767 34.4891 32.7766 34.2436 33.3598 33.9621C33.986 33.649 34.1989 33.649 34.703 34.1437C35.4075 34.8317 35.2063 34.8239 35.9014 34.1382C36.5738 33.476 36.5691 33.4713 35.9132 32.8004C35.51 32.3887 35.5006 32.1265 35.7511 31.613C36.034 31.0449 36.2807 30.4595 36.4901 29.8604C36.7249 29.17 36.8697 29.0228 37.5914 29.0213C38.526 29.0213 38.4266 29.0995 38.429 28.1845C38.429 27.2397 38.429 27.2397 37.4975 27.2201C36.9221 27.2084 36.7218 27.0142 36.5269 26.4561C36.3174 25.8431 36.0695 25.2439 35.7848 24.662C35.4889 24.0632 35.4944 23.8347 35.9695 23.3493C36.6623 22.6409 36.6615 22.8445 35.9797 22.1517C35.3159 21.4785 35.312 21.4825 34.6435 22.129C34.2208 22.5376 33.9539 22.5415 33.4208 22.2856C32.8273 21.9965 32.2163 21.7445 31.5915 21.531C30.9982 21.3298 30.8088 21.1357 30.8088 20.4977C30.8002 19.6367 30.8002 19.6367 29.9305 19.6367C29.0139 19.6367 29.0139 19.6367 29.0021 20.5682C28.9951 21.1521 28.8119 21.351 28.2429 21.5349C27.711 21.7009 27.1926 21.9074 26.6922 22.1525C25.7623 22.6222 25.7059 22.6331 24.9513 21.8848C24.8778 21.8112 24.8065 21.7345 24.7267 21.668C24.6762 21.6335 24.6225 21.6042 24.5662 21.5803H24.5623Z" fill="white"/>
<path d="M17.594 20.4954C16.9897 19.8152 16.3932 19.1475 15.8007 18.4751C15.4265 18.0516 15.4156 17.5859 15.7655 17.2688C16.1154 16.9518 16.5889 17.0043 16.9623 17.4184C17.6574 18.1912 18.3486 18.9674 19.0359 19.7471C19.4766 20.2496 19.4813 20.7913 19.0453 21.2915C18.3541 22.0852 17.6519 22.8695 16.9474 23.6515C16.5952 24.0429 16.1185 24.093 15.7733 23.7932C15.4171 23.4801 15.4195 23.0034 15.7874 22.5862C16.3713 21.9232 16.9615 21.2649 17.5463 20.6034C17.566 20.5692 17.582 20.533 17.594 20.4954Z" fill="white"/>
<path d="M6.2012 20.5259C6.80393 21.2038 7.38631 21.8504 7.95851 22.5055C8.09178 22.6461 8.19793 22.8101 8.27161 22.9893C8.32738 23.1582 8.32123 23.3414 8.25426 23.5062C8.18728 23.671 8.06385 23.8066 7.90606 23.8887C7.7508 23.9743 7.57107 24.0046 7.3963 23.9748C7.22153 23.9449 7.06208 23.8566 6.94405 23.7243C6.51822 23.268 6.10806 22.7959 5.69162 22.3294C5.37852 21.9795 5.06541 21.6335 4.76092 21.2766C4.35388 20.7944 4.34214 20.259 4.74918 19.7894C5.45836 18.9758 6.17668 18.1693 6.90413 17.3698C7.24071 16.9988 7.71507 16.9651 8.04931 17.2626C8.38355 17.56 8.4039 18.0391 8.07671 18.414C7.47006 19.1099 6.8509 19.7956 6.2012 20.5259Z" fill="white"/>
<path d="M13.4706 17.376C13.3211 18.0023 13.1481 18.7216 12.9775 19.4425C12.6315 20.8959 12.286 22.35 11.9411 23.8049C11.9317 23.8425 11.9184 23.8792 11.9074 23.9168C11.765 24.4068 11.383 24.6651 10.9525 24.5618C10.522 24.4585 10.2691 24.0585 10.3834 23.5638C10.7043 22.1705 11.0409 20.7811 11.3736 19.3909C11.5607 18.6081 11.7399 17.8207 11.9474 17.0426C11.9937 16.8575 12.108 16.6966 12.2676 16.5919C12.4271 16.4872 12.6201 16.4464 12.8084 16.4774C13.206 16.5494 13.4777 16.8751 13.4706 17.376Z" fill="white"/>
<path d="M11.8254 29.0236C11.9295 29.0216 12.033 29.0406 12.1297 29.0796C12.2263 29.1186 12.314 29.1768 12.3875 29.2505C12.4611 29.3243 12.519 29.4122 12.5577 29.5089C12.5964 29.6057 12.6152 29.7092 12.6128 29.8134C12.611 30.0175 12.5296 30.2128 12.3858 30.3577C12.2421 30.5026 12.0474 30.5856 11.8434 30.5891C11.633 30.5911 11.4303 30.5109 11.2782 30.3655C11.1261 30.2202 11.0368 30.0212 11.0293 29.811C11.0294 29.7069 11.0501 29.6039 11.0903 29.5078C11.1304 29.4118 11.1892 29.3246 11.2632 29.2514C11.3372 29.1782 11.425 29.1204 11.5215 29.0813C11.618 29.0422 11.7213 29.0226 11.8254 29.0236Z" fill="white"/>
<path d="M26.9192 8.71478C25.7348 8.71478 24.5505 8.732 23.3662 8.71008C22.6713 8.68694 22.0136 8.3909 21.5355 7.88611C21.0574 7.38132 20.7975 6.70846 20.8121 6.01335C20.8267 5.31825 21.1147 4.65691 21.6136 4.17268C22.1125 3.68844 22.7821 3.42032 23.4773 3.42643C25.7677 3.42095 28.0589 3.4139 30.3492 3.42643C31.896 3.43582 33.0537 4.58413 33.0545 6.06747C33.0545 7.57116 31.8897 8.70382 30.3148 8.71556C29.1829 8.72339 28.0503 8.71556 26.9176 8.71556L26.9192 8.71478ZM26.8957 7.14455H30.2929C30.7735 7.14455 31.1625 6.97235 31.3801 6.52539C31.741 5.78333 31.1977 5.01387 30.296 5.00839C28.462 4.99822 26.6272 5.00839 24.7924 5.00839C24.3501 5.00839 23.9071 4.999 23.4617 5.01387C22.938 5.03109 22.5623 5.30741 22.4214 5.7481C22.1866 6.47607 22.7048 7.13516 23.5368 7.14377C24.657 7.15629 25.7763 7.14455 26.8957 7.14455Z" fill="white"/>
<path d="M16.7998 6.06683C16.8001 6.5901 16.645 7.10167 16.3541 7.53667C16.0633 7.97167 15.6498 8.31051 15.1662 8.51021C14.6825 8.70991 14.1504 8.76148 13.6374 8.65838C13.1244 8.55529 12.6536 8.30216 12.2846 7.93111C11.9157 7.56006 11.6652 7.0878 11.565 6.57421C11.4648 6.06063 11.5194 5.52885 11.7218 5.04633C11.9242 4.5638 12.2654 4.15226 12.702 3.86389C13.1387 3.57552 13.6511 3.42331 14.1744 3.42656C14.8714 3.43254 15.538 3.71309 16.0295 4.20737C16.5209 4.70165 16.7977 5.36978 16.7998 6.06683ZM13.1043 6.08013C13.1052 6.22037 13.1336 6.35908 13.1881 6.48831C13.2426 6.61754 13.322 6.73477 13.4218 6.83328C13.5216 6.93179 13.6399 7.00965 13.7698 7.06242C13.8998 7.11518 14.0388 7.14181 14.1791 7.14078C14.4623 7.1308 14.7305 7.0107 14.9265 6.80604C15.1225 6.60138 15.231 6.3283 15.2288 6.04491C15.2185 5.76949 15.1026 5.50859 14.9051 5.31634C14.7076 5.1241 14.4437 5.01527 14.1681 5.01244C14.0276 5.01075 13.8882 5.03724 13.7581 5.09035C13.628 5.14346 13.5099 5.2221 13.4108 5.32164C13.3116 5.42117 13.2334 5.53958 13.1807 5.66986C13.1281 5.80014 13.1021 5.93964 13.1043 6.08013Z" fill="white"/>
<path d="M4.67677 6.09022C4.67492 5.56861 4.82792 5.05819 5.1164 4.62362C5.40489 4.18905 5.81587 3.84988 6.29729 3.64909C6.7787 3.44829 7.30888 3.39491 7.82066 3.4957C8.33244 3.59649 8.80279 3.84692 9.17211 4.21526C9.54144 4.5836 9.79313 5.05328 9.89529 5.56478C9.99745 6.07629 9.94549 6.60661 9.74599 7.08856C9.54649 7.57051 9.20842 7.9824 8.77463 8.27205C8.34083 8.5617 7.83082 8.71607 7.30921 8.71561C6.61321 8.71254 5.94649 8.43517 5.45368 7.94368C4.96087 7.45219 4.68171 6.78621 4.67677 6.09022ZM8.36907 6.06048C8.36772 5.77938 8.25476 5.51034 8.05505 5.31253C7.85533 5.11472 7.58521 5.00435 7.30412 5.0057C7.02303 5.00705 6.75398 5.12001 6.55617 5.31973C6.35837 5.51944 6.248 5.78956 6.24935 6.07065C6.2507 6.35174 6.36365 6.62079 6.56337 6.8186C6.76309 7.0164 7.0332 7.12677 7.3143 7.12543C7.59539 7.12408 7.86443 7.01112 8.06224 6.8114C8.26005 6.61168 8.37042 6.34157 8.36907 6.06048Z" fill="white"/>
<path d="M25.127 28.096C25.129 27.4639 25.2558 26.8385 25.5001 26.2556C25.7445 25.6726 26.1015 25.1437 26.5507 24.699C26.9999 24.2544 27.5325 23.9028 28.1179 23.6645C28.7033 23.4261 29.33 23.3057 29.9621 23.3102C32.6164 23.325 34.7737 25.5019 34.7526 28.15C34.7315 30.7754 32.5538 32.9319 29.9276 32.9249C28.6516 32.918 27.4303 32.4062 26.5306 31.5013C25.631 30.5964 25.1263 29.372 25.127 28.096ZM29.9511 24.8867C29.5223 24.8792 29.0964 24.9571 28.698 25.1159C28.2996 25.2746 27.9368 25.511 27.6306 25.8113C27.3245 26.1116 27.0811 26.4698 26.9147 26.865C26.7483 27.2603 26.6622 27.6847 26.6614 28.1135C26.6605 28.5424 26.745 28.9671 26.9099 29.363C27.0747 29.7588 27.3167 30.118 27.6217 30.4195C27.9267 30.7209 28.2886 30.9587 28.6864 31.119C29.0841 31.2793 29.5098 31.3589 29.9386 31.3531C30.7875 31.3416 31.5978 30.9968 32.1946 30.393C32.7914 29.7892 33.1269 28.975 33.1285 28.126C33.1302 27.2771 32.7979 26.4615 32.2034 25.8555C31.6089 25.2494 30.8 24.9014 29.9511 24.8867Z" fill="white"/>
</g>
<defs>
<clipPath id="clip0_421_27133">
<rect width="40" height="38.1386" fill="white" transform="translate(0 0.0332031)"/>
</clipPath>
</defs>
</svg>
